<svg width="90" height="92" viewBox="0 0 90 92" fill="none" xmlns="http://www.w3.org/2000/svg">
<path d="M83.1019 18.745C89.1203 12.595 89.4863 3.27157 89.4986 2.87781L89.5913 0L86.7754 0.0940552C86.3902 0.107391 77.2654 0.481506 71.2469 6.63159C66.3353 11.6502 65.1886 18.783 64.9257 21.4502L61.6071 24.8369C61.7286 23.9735 61.7994 23.087 61.7994 22.1781C61.7994 13.4815 55.6065 6.62387 55.3428 6.33609L53.4168 4.23459L51.4907 6.33609C51.2271 6.62387 45.0342 13.4815 45.0342 22.1781C45.0342 28.5359 48.3418 33.9076 50.2253 36.4513L46.5902 40.1601C46.7021 39.3298 46.7673 38.477 46.7673 37.6045C46.7673 28.9072 40.5738 22.0496 40.3101 21.7618L38.3847 19.6603L36.4587 21.7618C36.195 22.0496 30.0015 28.9072 30.0015 37.6045C30.0015 43.9202 33.2665 49.2638 35.1561 51.8279L31.3713 55.6898C31.4819 54.8671 31.5451 54.0227 31.5451 53.1594C31.5451 44.4621 25.3515 37.6045 25.0878 37.3167L23.1618 35.2152L21.2364 37.3167C20.9728 37.6045 14.7792 44.4621 14.7792 53.1594C14.7792 59.4646 18.0339 64.8012 19.9243 67.3702L0.306793 87.3892L4.03528 91.2047L24.0641 70.7667C26.0766 72.3235 29.904 74.8321 34.5903 75.7347C34.1516 73.7427 33.9188 71.6714 33.9188 69.5454C33.9188 65.8484 34.6205 62.3157 35.8929 59.0779C35.7487 59.0961 35.6052 59.1151 35.4624 59.1354L36.1586 58.4251C38.9533 51.8026 44.1635 46.4857 50.6489 43.6402C50.6482 43.6402 50.6482 43.6402 50.6475 43.6402L54.2765 39.9369C54.9858 40.476 55.8942 41.1112 56.9661 41.7507C58.4389 41.5008 59.9502 41.3688 61.4911 41.3688C65.8368 41.3688 69.9498 42.4027 73.6097 44.241C79.3274 42.5017 83.3497 38.7114 83.566 38.5044L85.6225 36.5369L83.566 34.5688C83.2852 34.2992 76.5739 27.9709 68.0629 27.9709C67.3152 27.9709 66.5825 28.0221 65.8664 28.1113L68.7283 25.1906C71.433 24.8979 78.2686 23.6836 83.1019 18.745V18.745Z" fill="#18B444"/>
<path d="M61.8441 65.1964C59.4971 65.1964 57.5876 67.147 57.5876 69.5454C57.5876 71.9438 59.4971 73.8951 61.8441 73.8951C64.191 73.8951 66.1006 71.9438 66.1006 69.5454C66.1006 67.147 64.191 65.1964 61.8441 65.1964V65.1964Z" fill="black"/>
<path d="M61.5358 47.0915C49.4193 47.0915 39.5618 57.1645 39.5618 69.5454C39.5618 81.927 49.4193 92 61.5358 92C73.6524 92 83.5098 81.927 83.5098 69.5454C83.5098 57.1645 73.6524 47.0915 61.5358 47.0915ZM72.242 62.7334L70.1855 64.8349C70.5281 65.4666 70.8035 66.1418 71.0033 66.8494H73.9099V72.2414H71.0033C70.8035 72.9489 70.5281 73.6241 70.1855 74.2559L72.242 76.3574L68.5108 80.1701L66.4543 78.0686C65.8356 78.4195 65.175 78.7003 64.4829 78.9046V81.875H59.206V78.9046C58.5132 78.7003 57.8526 78.4195 57.2347 78.0686L55.1775 80.1701L51.4462 76.3574L53.5034 74.2559C53.1601 73.6241 52.8848 72.9489 52.6849 72.2414H49.7784V66.8494H52.6849C52.8848 66.1418 53.1601 65.4666 53.5034 64.8349L51.4462 62.7334L55.1775 58.9207L57.2347 61.0222C57.8526 60.6719 58.5132 60.3904 59.206 60.1862V57.2157H64.4829V60.1862C65.175 60.3904 65.8356 60.6719 66.4543 61.0222L68.5108 58.9207L72.242 62.7334Z" fill="black"/>
</svg>
