<svg width="200" height="199" viewBox="0 0 200 199" fill="none" xmlns="http://www.w3.org/2000/svg">
<rect width="200" height="199" fill="white" fill-opacity="0.01"/>
<g clip-path="url(#clip0)">
<path d="M136.1 106C134.498 106 133.2 107.388 133.2 109.1C133.2 110.812 134.498 112.2 136.1 112.2C137.702 112.2 139 110.812 139 109.1C139 107.388 137.702 106 136.1 106Z" fill="#30E9BC"/>
<path d="M153.5 106C151.898 106 150.6 107.388 150.6 109.1C150.6 110.812 151.898 112.2 153.5 112.2C155.102 112.2 156.4 110.812 156.4 109.1C156.4 107.388 155.102 106 153.5 106Z" fill="#30E9BC"/>
<path d="M127.4 165.933H131.267V170.067H127.4V165.933Z" fill="#30E9BC"/>
<path d="M158.333 165.933H162.2V170.067H158.333V165.933Z" fill="#30E9BC"/>
<path d="M127.4 192.8C127.4 193.348 127.604 193.874 127.966 194.261L131.833 198.394C132.196 198.782 132.687 199 133.2 199H156.4C156.913 199 157.404 198.782 157.767 198.394L161.634 194.261C161.996 193.874 162.2 193.348 162.2 192.8V176.267C162.2 175.125 161.334 174.2 160.267 174.2H129.333C128.266 174.2 127.4 175.125 127.4 176.267V192.8ZM131.267 178.333H158.333V191.944L155.599 194.867H134.001L131.267 191.944V178.333Z" fill="#30E9BC"/>
<path d="M98.4 168H96.4667C95.399 168 94.5334 168.925 94.5334 170.067V190.733C94.5334 191.875 95.399 192.8 96.4667 192.8H98.4V199H102.267V192.8H106.133V199H110V198.858C113.741 198.35 117.179 196.396 119.667 193.366V199H123.533V161.8H166.067V199H169.933V184.533H179.6V199H183.467V184.533H185.4C186.468 184.533 187.333 183.608 187.333 182.467V174.2C187.333 173.059 186.468 172.133 185.4 172.133H183.467V153.533C183.457 144.407 176.538 137.01 168 137H158.333V135.186C161.554 131.807 163.57 127.332 164.031 122.533H164.133C167.552 122.52 170.555 120.105 171.515 116.598C175.014 114.042 176.547 109.347 175.297 105.018C174.046 100.69 170.304 97.7363 166.067 97.7333H164.133V88.3899C164.133 82.8095 162.548 78.9638 159.283 76.6368C157.785 75.5671 156.024 74.998 154.223 75H152.777C150.976 74.998 149.215 75.5671 147.717 76.6368C145.952 77.8992 143.648 77.8992 141.883 76.6368C140.385 75.5671 138.624 74.998 136.823 75H135.377C133.576 74.998 131.815 75.5671 130.317 76.6368C127.052 78.9638 125.467 82.8075 125.467 88.3899V97.7333H123.533C121.435 97.7414 119.397 98.4861 117.733 99.8535V87.0407C117.725 83.8439 118.913 80.7761 121.034 78.5218L118.3 75.6054C115.452 78.6328 113.855 82.753 113.867 87.0468V103.933C113.856 106.551 112.309 108.88 110 109.753V87.0468C109.992 83.8499 111.18 80.7822 113.3 78.5278L110.566 75.6054C107.718 78.6328 106.122 82.753 106.133 87.0468V110.133H102.267V87.0468C102.258 83.8499 103.447 80.7822 105.567 78.5278L102.833 75.6054C99.985 78.6328 98.3887 82.753 98.4 87.0468V109.753C96.091 108.88 94.5437 106.551 94.5334 103.933V87.0468C94.5249 83.8499 95.7134 80.7822 97.8336 78.5278L95.0998 75.6054C92.2517 78.6328 90.6554 82.753 90.6667 87.0468V103.933C90.6723 108.842 93.9028 113.071 98.4 114.06V168ZM102.267 122.533H106.133V168H102.267V122.533ZM113.867 176.267H119.667V180.4H113.867V176.267ZM119.667 159.733V172.133H113.511C112.926 170.382 111.638 169.005 110 168.38V153.533C110.01 147.489 114.092 142.332 119.667 141.319V159.733ZM100.333 188.667H98.4V172.133H108.067C109.134 172.133 110 173.059 110 174.2V186.6C110 187.741 109.134 188.667 108.067 188.667H100.333ZM110 194.679V192.42C112.309 191.547 113.856 189.218 113.867 186.6V184.533H119.506C118.673 189.729 114.862 193.796 110 194.679ZM123.533 157.667V141.133H127.4V157.667H123.533ZM131.846 141.133C132.58 143.743 133.987 146.078 135.906 147.87L141.389 157.667H131.267V141.133H131.846ZM144.8 147.333C139.464 147.326 135.14 142.704 135.133 137V128.733C135.133 123.027 139.462 118.4 144.8 118.4C150.138 118.4 154.467 123.027 154.467 128.733V137C154.46 142.704 150.137 147.326 144.8 147.333ZM147.279 151.212L144.8 155.697L142.287 151.204C143.115 151.376 143.956 151.464 144.8 151.467C145.632 151.463 146.461 151.378 147.279 151.212ZM183.467 180.4H169.933V176.267H183.467V180.4ZM179.6 153.533V172.133H169.933V141.319C175.508 142.332 179.59 147.489 179.6 153.533ZM166.067 141.133V157.667H162.2V141.133H166.067ZM158.333 141.133V157.667H148.195L153.544 148.022C155.544 146.21 157.01 143.818 157.763 141.133H158.333ZM158.32 128.463C158.196 120.576 152.178 114.253 144.8 114.253C137.422 114.253 131.405 120.576 131.28 128.463C130.008 126.017 129.339 123.265 129.333 120.467V101.867H160.267V120.467C160.261 123.265 159.592 126.017 158.32 128.463ZM164.133 118.4V110.133C166.269 110.133 168 111.984 168 114.267C168 116.549 166.269 118.4 164.133 118.4ZM166.067 101.867C168.095 101.868 169.976 103.002 171.026 104.858C172.075 106.713 172.142 109.02 171.202 110.942C169.969 107.943 167.198 106.005 164.133 106V101.867H166.067ZM132.462 80.0778C133.325 79.4613 134.339 79.1323 135.377 79.1333H136.823C137.862 79.1323 138.876 79.4613 139.738 80.0778C142.802 82.2676 146.798 82.2676 149.862 80.0778C150.725 79.4613 151.739 79.1323 152.777 79.1333H154.223C155.262 79.1323 156.276 79.4613 157.138 80.0778C158.481 81.0325 160.267 82.9357 160.267 88.3899V89.4666H129.333V88.3899C129.333 82.9357 131.119 81.0325 132.462 80.0778ZM129.333 93.6H160.267V97.7333H129.333V93.6ZM123.533 101.867H125.467V106C122.415 106.006 119.653 107.93 118.414 110.912C117.456 108.999 117.513 106.688 118.564 104.831C119.615 102.975 121.504 101.847 123.533 101.867ZM121.6 114.267C121.6 111.984 123.331 110.133 125.467 110.133V118.4C123.331 118.4 121.6 116.549 121.6 114.267ZM114.476 111.609C115.168 113.621 116.426 115.353 118.078 116.568C119.027 120.091 122.037 122.521 125.467 122.533H125.57C126.03 127.332 128.046 131.807 131.267 135.186V137H121.6C117.155 137.003 112.926 139.057 110 142.634V114.06C111.669 113.682 113.214 112.837 114.476 111.609V111.609ZM106.133 118.4H102.267V114.267H106.133V118.4Z" fill="#30E9BC"/>
<path d="M142.308 123.153L139.559 126.047C140.837 127.741 142.764 128.727 144.8 128.727C146.836 128.727 148.763 127.741 150.041 126.047L147.292 123.153C146.744 124.055 145.806 124.6 144.8 124.6C143.794 124.6 142.856 124.055 142.308 123.153Z" fill="#30E9BC"/>
</g>
<path d="M118 80.7925V0.193359H0V80.7925H43.2579V84.0924C43.2579 89.0866 38.4091 93.1494 32.4493 93.1494H26.3941V98.9501H91.4457V93.1494H85.3905C79.4307 93.1494 74.5818 89.0866 74.5818 84.0924V80.7925H118ZM111.078 5.99414V57.322H62.4615V53.1217C63.4365 53.3793 64.4493 53.5107 65.4639 53.5107C68.0045 53.5107 70.5468 52.7002 72.4815 51.0786C75.3876 48.6442 77.8363 40.8079 78.7537 37.5518L80.0411 32.9829L74.5891 34.0622C71.8648 34.6015 66.4542 35.7715 62.4615 37.2617V34.5207C66.2319 33.3417 68.9255 30.2932 68.9255 26.7274C68.9255 23.2839 64.0433 16.292 61.9448 13.446L59 9.45271L56.0552 13.446C53.9567 16.292 49.0745 23.2839 49.0745 26.7274C49.0745 30.2932 51.7672 33.3417 55.5385 34.5207V37.2617C51.5458 35.7715 46.1352 34.6015 43.4109 34.0622L37.9589 32.9829L39.2463 37.5518C40.1646 40.8079 42.6124 48.6442 45.5185 51.0786C47.4532 52.7002 49.9946 53.5107 52.5361 53.5107C53.5498 53.5107 54.5635 53.3793 55.5385 53.1217V57.322H6.92216V5.99414H111.078ZM55.9976 26.7334C56.0399 25.9109 57.2715 23.5377 59 20.8043C60.7303 23.54 61.9628 25.9139 62.0024 26.7274C62.0024 28.1149 60.6556 29.2433 59 29.2433C57.3471 29.2433 56.0012 28.1179 55.9976 26.7334ZM63.3357 43.4235C64.0595 42.8669 66.9332 41.9182 70.4622 41.0103C69.3774 43.9704 68.2449 46.3791 67.5868 46.9773C66.4155 47.9584 64.5114 47.9584 63.3411 46.9773C62.1716 45.9976 62.1698 44.4047 63.3357 43.4235ZM54.6589 46.9773C53.4886 47.9577 51.5836 47.9577 50.4204 46.9833C49.7569 46.3806 48.6235 43.9704 47.5378 41.0096C51.065 41.9167 53.9387 42.8661 54.6643 43.4235C55.8302 44.4047 55.8284 45.9976 54.6589 46.9773ZM6.92216 63.1228H111.077V74.9917H6.92216V63.1228ZM71.349 93.1494H46.4917C48.8018 90.6402 50.181 87.4996 50.181 84.0924V80.7925H67.6588V84.0924C67.6588 87.4996 69.038 90.6402 71.349 93.1494V93.1494Z" fill="#30E9BC"/>
<path d="M59.0001 66.1032C57.1897 66.1032 55.4548 67.4371 55.5386 69.0036C55.6223 70.5754 57.0591 71.904 59.0001 71.904C60.8105 71.904 62.5454 70.5701 62.4616 69.0036C62.377 67.4326 60.9411 66.1032 59.0001 66.1032Z" fill="#30E9BC"/>
<path d="M13.8948 12.0804H36.9948V17.8812H13.8948V12.0804Z" fill="#30E9BC"/>
<path d="M13.8948 23.1548H28.9329V28.9556H13.8948V23.1548Z" fill="#30E9BC"/>
<path d="M13.8948 34.2291H28.9329V40.0299H13.8948V34.2291Z" fill="#30E9BC"/>
<path d="M13.8948 45.3035H28.9329V51.1043H13.8948V45.3035Z" fill="#30E9BC"/>
<path d="M80.7532 12.0804H103.853V17.8812H80.7532V12.0804Z" fill="#30E9BC"/>
<path d="M88.8151 23.1548H103.853V28.9556H88.8151V23.1548Z" fill="#30E9BC"/>
<path d="M88.8151 34.2291H103.853V40.0299H88.8151V34.2291Z" fill="#30E9BC"/>
<path d="M88.8151 45.3035H103.853V51.1043H88.8151V45.3035Z" fill="#30E9BC"/>
<defs>
<clipPath id="clip0">
<rect width="116" height="124" fill="white" transform="translate(81 75)"/>
</clipPath>
</defs>
</svg>
