<svg width="110" height="39" viewBox="0 0 110 39" fill="none" xmlns="http://www.w3.org/2000/svg">
<g style="mix-blend-mode:darken" filter="url(#filter0_d)">
<path d="M45.3605 15.9658C44.8364 16.057 44.3533 16.1025 43.9113 16.1025C42.2661 16.1025 40.9285 15.6172 39.8986 14.6465C38.8732 13.6758 38.3605 12.3678 38.3605 10.7227C38.3605 9.07747 38.8686 7.77409 39.8849 6.8125C40.9057 5.85091 42.2547 5.37012 43.9318 5.37012C44.5607 5.37012 45.1326 5.44987 45.6476 5.60938C45.6202 5.54102 45.6066 5.45671 45.6066 5.35645C45.6066 5.25163 45.6635 5.15365 45.7775 5.0625C45.896 4.9668 46.0213 4.91895 46.1534 4.91895C46.2902 4.91895 46.4155 4.98503 46.5294 5.11719C46.6479 5.24479 46.7846 5.48861 46.9396 5.84863C47.0991 6.20866 47.3247 6.5459 47.6163 6.86035L47.8624 7.14746C48.0721 7.389 48.1769 7.60547 48.1769 7.79688C48.1769 8.20703 48.006 8.41211 47.6642 8.41211C47.3816 8.41211 47.1014 8.18424 46.8234 7.72852C46.5499 7.27279 46.1284 6.93555 45.5587 6.7168C44.9936 6.49349 44.4148 6.38184 43.8224 6.38184C42.5828 6.38184 41.5825 6.76237 40.8214 7.52344C40.0649 8.27995 39.6866 9.33496 39.6866 10.6885C39.6866 12.0374 40.0808 13.097 40.8693 13.8672C41.6577 14.6374 42.6079 15.0225 43.7198 15.0225C44.8318 15.0225 45.6157 14.79 46.0714 14.3252C46.3038 14.0791 46.4656 13.8763 46.5568 13.7168L46.7823 13.3135C46.9874 12.9215 47.1925 12.7005 47.3976 12.6504C47.4659 12.6322 47.5594 12.623 47.6779 12.623C47.7963 12.623 47.9103 12.6868 48.0196 12.8145C48.129 12.9375 48.1837 13.0833 48.1837 13.252C48.1837 13.5436 47.9969 13.8923 47.6232 14.2979C47.254 14.6989 47.0034 15.027 46.8712 15.2822C46.7436 15.5374 46.6661 15.8109 46.6388 16.1025C46.6023 16.4899 46.3927 16.6836 46.0099 16.6836C45.8413 16.6836 45.6909 16.6198 45.5587 16.4922C45.4266 16.3646 45.3605 16.2119 45.3605 16.0342C45.3605 16.0114 45.3605 15.9886 45.3605 15.9658ZM51.6036 12.4863C51.6036 13.2383 51.8178 13.849 52.2462 14.3184C52.6791 14.7878 53.2283 15.0225 53.8936 15.0225C54.559 15.0225 55.0945 14.8014 55.5001 14.3594C55.9102 13.9173 56.1153 13.3271 56.1153 12.5889C56.1153 11.363 55.6801 10.5632 54.8097 10.1895C54.5225 10.0664 54.199 10.0049 53.8389 10.0049C53.1508 10.0049 52.6062 10.2305 52.2052 10.6816C51.8041 11.1283 51.6036 11.7298 51.6036 12.4863ZM50.4141 12.5615C50.4141 11.5179 50.7445 10.652 51.4054 9.96387C52.0707 9.27116 52.9047 8.9248 53.9073 8.9248C54.9145 8.9248 55.7325 9.24609 56.3614 9.88867C56.9949 10.5267 57.3116 11.3812 57.3116 12.4521C57.3116 13.5186 56.9812 14.3936 56.3204 15.0771C55.6641 15.7607 54.8233 16.1025 53.7979 16.1025C52.7771 16.1025 51.9568 15.7721 51.337 15.1113C50.7218 14.4505 50.4141 13.6006 50.4141 12.5615ZM63.3086 16L61.9756 15.959L61.2852 15.9795C61.1075 15.9932 60.9047 16 60.6768 16C60.2393 16 60.0205 15.8314 60.0205 15.4941C60.0205 15.3301 60.0889 15.2025 60.2256 15.1113C60.3623 15.0202 60.5515 14.9746 60.793 14.9746H61.3946V10.5176C61.3946 10.2441 61.3399 10.1074 61.2305 10.1074C61.1621 10.1074 61.0733 10.1234 60.9639 10.1553C60.8591 10.1872 60.7315 10.2031 60.5811 10.2031C60.4307 10.2031 60.2985 10.1553 60.1846 10.0596C60.0752 9.96387 60.0205 9.83398 60.0205 9.66992C60.0205 9.31901 60.2689 9.12077 60.7657 9.0752C61.0664 9.04785 61.3125 9.00684 61.5039 8.95215C61.6954 8.89746 61.8526 8.87012 61.9756 8.87012C62.3903 8.87012 62.5977 9.08887 62.5977 9.52637V10.2988C62.8392 9.88867 63.1719 9.55827 63.5957 9.30762C64.0241 9.05241 64.4434 8.9248 64.8536 8.9248C66.0886 8.9248 66.8679 9.41243 67.1914 10.3877C67.4193 9.95475 67.7543 9.60384 68.1963 9.33496C68.6384 9.06152 69.0804 8.9248 69.5225 8.9248C70.361 8.9248 70.9831 9.14355 71.3887 9.58105C71.7989 10.014 72.0039 10.5973 72.0039 11.3311V15.0088L72.462 15.0156C73.0362 15.0156 73.3233 15.1956 73.3233 15.5557C73.3233 15.6833 73.2686 15.7972 73.1592 15.8975C73.0498 15.9932 72.9063 16.041 72.7286 16.041C72.2865 16.041 71.9903 16.0273 71.8399 16C71.6895 15.9727 71.5368 15.959 71.3819 15.959C71.2269 15.959 71.0993 15.9613 70.9991 15.9658L70.6983 15.9795C70.5342 15.9932 70.3246 16 70.0694 16C69.6273 16 69.4063 15.8314 69.4063 15.4941C69.4063 15.3301 69.4746 15.2025 69.6114 15.1113C69.7526 15.0202 69.9395 14.9746 70.1719 14.9746L70.8213 14.9883V11.7754C70.8213 10.6042 70.3679 10.0186 69.461 10.0186C69.0463 10.0186 68.6224 10.2236 68.1895 10.6338C67.7611 11.0439 67.474 11.5475 67.3282 12.1445V14.9746H67.7862C68.3604 14.9746 68.6475 15.1546 68.6475 15.5146C68.6475 15.6423 68.5928 15.7562 68.4834 15.8564C68.3741 15.9521 68.2305 16 68.0528 16L66.7539 15.959C66.5625 15.959 66.419 15.9613 66.3233 15.9658L66.0225 15.9795C65.8038 15.9932 65.5964 16 65.4004 16C65.209 16 65.0495 15.9567 64.9219 15.8701C64.7989 15.7835 64.7373 15.6582 64.7373 15.4941C64.7373 15.3301 64.8103 15.2025 64.9561 15.1113C65.1019 15.0202 65.2956 14.9746 65.5371 14.9746H66.1455V11.7754C66.1455 10.6042 65.6853 10.0186 64.7647 10.0186C64.3454 10.0186 63.9148 10.2236 63.4727 10.6338C63.0352 11.0439 62.7435 11.5475 62.5977 12.1445V14.9746H63.042C63.6163 14.9746 63.9034 15.1546 63.9034 15.5146C63.9034 15.6423 63.8487 15.7562 63.7393 15.8564C63.6299 15.9521 63.4864 16 63.3086 16ZM79.5459 9.99121C78.721 9.99121 78.0557 10.3467 77.5498 11.0576V14.3594C78.0101 14.8014 78.6003 15.0225 79.3203 15.0225C80.0404 15.0225 80.6123 14.7741 81.0361 14.2773C81.4645 13.776 81.6787 13.1927 81.6787 12.5273C81.6787 11.2467 81.2549 10.4492 80.4072 10.1348C80.1475 10.0391 79.8604 9.99121 79.5459 9.99121ZM77.5498 9.82715C78.083 9.22559 78.7985 8.9248 79.6963 8.9248C80.5986 8.9248 81.3529 9.22103 81.959 9.81348C82.5651 10.4059 82.8682 11.2513 82.8682 12.3496C82.8682 13.4434 82.5332 14.3434 81.8633 15.0498C81.1934 15.7516 80.3275 16.1025 79.2656 16.1025C78.8053 16.1025 78.3542 16.0046 77.9121 15.8086C77.7754 15.7493 77.6546 15.6787 77.5498 15.5967V16.957C77.5498 17.6361 77.6113 18.0781 77.7344 18.2832C77.7845 18.3652 77.8597 18.4382 77.96 18.502C78.1559 18.625 78.2539 18.7777 78.2539 18.96C78.2539 19.3701 78.026 19.5752 77.5703 19.5752C77.0143 19.5752 76.6452 19.1924 76.4629 18.4268C76.3991 18.1715 76.3672 17.873 76.3672 17.5312V10.5723C76.3672 10.3991 76.3512 10.2897 76.3193 10.2441C76.2874 10.1986 76.2419 10.1758 76.1826 10.1758L75.6016 10.2578C75.4193 10.2578 75.2712 10.2122 75.1572 10.1211C75.0433 10.0254 74.9863 9.89323 74.9863 9.72461C74.9863 9.37826 75.2347 9.18229 75.7314 9.13672C76.0094 9.10938 76.2191 9.07747 76.3604 9.04102L76.6953 8.95898C76.7773 8.9362 76.8981 8.9248 77.0576 8.9248C77.2217 8.9248 77.3447 8.98633 77.4268 9.10938C77.5088 9.23242 77.5498 9.38965 77.5498 9.58105V9.82715ZM88.7216 16L87.4365 15.959C87.2451 15.959 87.1015 15.9613 87.0058 15.9658L86.705 15.9795C86.4772 15.9932 86.2767 16 86.1035 16C85.6614 16 85.4404 15.8314 85.4404 15.4941C85.4404 15.3301 85.5088 15.2025 85.6455 15.1113C85.7867 15.0202 85.9736 14.9746 86.206 14.9746H86.7392V10.5176C86.7392 10.2441 86.68 10.1074 86.5615 10.1074C86.5068 10.1074 86.4202 10.1234 86.3017 10.1553C86.1878 10.1872 86.0579 10.2031 85.9121 10.2031C85.7708 10.2031 85.6432 10.1553 85.5293 10.0596C85.4153 9.96387 85.3584 9.83398 85.3584 9.66992C85.3584 9.32357 85.6045 9.12533 86.0966 9.0752C86.402 9.04785 86.6504 9.00684 86.8418 8.95215C87.0377 8.89746 87.2268 8.87012 87.4091 8.87012C87.7509 8.87012 87.9218 9.08887 87.9218 9.52637V14.9746H88.4619C89.0361 14.9746 89.3232 15.1546 89.3232 15.5146C89.3232 15.6423 89.2662 15.7562 89.1523 15.8564C89.0429 15.9521 88.8994 16 88.7216 16ZM88.1748 6.52539C88.1748 6.96745 87.9879 7.25456 87.6142 7.38672C87.5094 7.42318 87.3613 7.44141 87.1699 7.44141C86.9785 7.44141 86.803 7.36621 86.6435 7.21582C86.484 7.06543 86.4043 6.86947 86.4043 6.62793C86.4043 6.38639 86.4863 6.18587 86.6504 6.02637C86.819 5.86686 87.0377 5.78711 87.3066 5.78711C87.58 5.78711 87.792 5.86003 87.9423 6.00586C88.0973 6.14714 88.1748 6.32031 88.1748 6.52539ZM94.9784 14.5371C95.2747 14.5371 95.4228 14.7103 95.4228 15.0566C95.4228 15.3164 95.2542 15.5557 94.9169 15.7744C94.5842 15.9932 94.1923 16.1025 93.7411 16.1025C92.9801 16.1025 92.4719 15.7425 92.2167 15.0225C92.1301 14.7764 92.0868 14.4847 92.0868 14.1475V6.75098C92.0868 6.57324 92.0709 6.46159 92.039 6.41602C92.0116 6.37044 91.9706 6.34766 91.9159 6.34766L91.3212 6.42969C91.1435 6.42969 90.9954 6.38411 90.8769 6.29297C90.7629 6.20182 90.706 6.07422 90.706 5.91016C90.706 5.5638 90.9521 5.36556 91.4443 5.31543C91.7633 5.28809 92.0116 5.24707 92.1894 5.19238C92.3717 5.13314 92.5562 5.10352 92.7431 5.10352C93.0986 5.10352 93.2763 5.32227 93.2763 5.75977V13.3682C93.2763 14.0062 93.3082 14.4141 93.372 14.5918C93.4358 14.765 93.5064 14.8789 93.5839 14.9336C93.6614 14.9883 93.7799 15.0156 93.9394 15.0156C94.1034 15.0156 94.2493 14.9587 94.3769 14.8447C94.509 14.7308 94.6116 14.651 94.6845 14.6055C94.7574 14.5599 94.8554 14.5371 94.9784 14.5371ZM99.1229 11.8711L99.5946 11.8848C99.7496 11.8893 100.246 11.8916 101.085 11.8916C101.923 11.8916 102.473 11.8232 102.732 11.6865C102.992 11.5498 103.122 11.3424 103.122 11.0645C103.122 10.7865 102.965 10.5404 102.65 10.3262C102.336 10.112 101.987 10.0049 101.604 10.0049C100.934 10.0049 100.383 10.1758 99.9501 10.5176C99.5171 10.8594 99.2414 11.3105 99.1229 11.8711ZM103.71 13.8467C104.111 13.8467 104.311 14.0267 104.311 14.3867C104.311 14.5508 104.248 14.7354 104.12 14.9404C103.997 15.141 103.815 15.3278 103.573 15.501C103.008 15.902 102.267 16.1025 101.351 16.1025C100.44 16.1025 99.6493 15.7949 98.9794 15.1797C98.6467 14.8743 98.3801 14.4984 98.1796 14.0518C97.979 13.6051 97.8788 13.1152 97.8788 12.582C97.8788 11.543 98.2206 10.6748 98.9042 9.97754C99.5878 9.27572 100.449 8.9248 101.488 8.9248C102.354 8.9248 103.04 9.13672 103.546 9.56055C104.056 9.97982 104.311 10.4971 104.311 11.1123C104.311 11.7275 104.063 12.1878 103.566 12.4932C103.07 12.7939 102.126 12.9443 100.736 12.9443C100.367 12.9443 99.8202 12.9307 99.0956 12.9033C99.1776 13.6097 99.451 14.1406 99.9159 14.4961C100.381 14.847 100.866 15.0225 101.372 15.0225C101.878 15.0225 102.277 14.9678 102.568 14.8584C102.864 14.7445 103.076 14.5485 103.204 14.2705C103.336 13.988 103.505 13.8467 103.71 13.8467Z" fill="#060606"/>
<path d="M54.6978 25.8232C55.705 26.598 56.2678 27.0446 56.3863 27.1631L56.6324 27.416C56.7737 27.5482 56.8921 27.6143 56.9879 27.6143C57.0836 27.6143 57.1679 27.5915 57.2408 27.5459C57.3137 27.4958 57.4003 27.4183 57.5005 27.3135C57.6054 27.2041 57.7216 27.097 57.8492 26.9922L59.3736 25.8164L57.5074 21.79C57.3843 21.5212 57.2864 21.3184 57.2134 21.1816C57.1451 21.0449 57.0813 20.9766 57.022 20.9766C56.9673 20.9766 56.9104 21.0267 56.8511 21.127C56.7964 21.2227 56.7235 21.373 56.6324 21.5781L54.6978 25.8232ZM52.3463 29.9453L51.3345 30C50.9791 30 50.8013 29.8564 50.8013 29.5693C50.8013 29.3825 50.9494 29.1751 51.2457 28.9473C51.7743 28.528 52.2665 27.8763 52.7222 26.9922L55.1011 22.207L55.9488 20.4092C56.1493 19.9671 56.3202 19.6618 56.4615 19.4932C56.6073 19.32 56.7919 19.2334 57.0152 19.2334C57.2385 19.2334 57.4254 19.3086 57.5757 19.459C57.7307 19.6094 57.9153 19.9147 58.1295 20.375L59.6265 23.5742C60.9071 26.1172 61.5884 27.4639 61.6705 27.6143L61.9234 28.0723C62.1239 28.4232 62.2629 28.6351 62.3404 28.708C62.4179 28.7809 62.4976 28.8424 62.5796 28.8926C62.9397 29.1068 63.1197 29.2982 63.1197 29.4668C63.1197 29.8223 62.942 30 62.5865 30L61.5543 29.9521L60.1666 30C59.9341 30 59.7518 29.9544 59.6197 29.8633C59.4875 29.7721 59.4214 29.6354 59.4214 29.4531C59.4214 29.0794 59.8362 28.8926 60.6656 28.8926C60.7157 28.8926 60.7658 28.8926 60.816 28.8926C60.8661 28.8926 60.9162 28.8903 60.9664 28.8857C60.8433 28.708 60.7157 28.4824 60.5836 28.209L59.8863 26.7871L58.6011 27.7852C58.1819 28.1087 57.8697 28.3958 57.6646 28.6465C57.4595 28.8926 57.2727 29.0156 57.1041 29.0156C56.9354 29.0156 56.801 28.9746 56.7007 28.8926C56.605 28.8105 56.5185 28.724 56.441 28.6328L56.1539 28.3047C56.0718 28.209 55.9625 28.1064 55.8257 27.9971L54.773 27.2109C54.5588 27.056 54.3401 26.8896 54.1168 26.7119L53.1119 28.9268H53.317C53.7636 28.9268 54.0871 28.9678 54.2877 29.0498C54.4882 29.1273 54.5884 29.2777 54.5884 29.501C54.5884 29.8382 54.356 30.0068 53.8912 30.0068L52.3463 29.9453ZM70.19 28.2295V24.7363C70.19 24.668 70.1945 24.6019 70.2036 24.5381C69.7342 24.1644 69.1828 23.9775 68.5493 23.9775C67.9159 23.9775 67.3713 24.2259 66.9155 24.7227C66.4598 25.2194 66.232 25.7913 66.232 26.4385C66.232 27.277 66.4393 27.9173 66.854 28.3594C67.2687 28.8014 67.8133 29.0225 68.4878 29.0225C69.1623 29.0225 69.7297 28.7581 70.19 28.2295ZM70.4976 23.4922C70.7118 23.1139 71.0285 22.9248 71.4478 22.9248C71.867 22.9248 72.0767 23.123 72.0767 23.5195C72.0767 23.7109 71.9833 23.8682 71.7964 23.9912C71.6141 24.1097 71.4979 24.2783 71.4478 24.4971C71.4022 24.7113 71.3794 25.1237 71.3794 25.7344V29.9385C71.3794 31.0641 71.0991 31.9551 70.5386 32.6113C69.978 33.2721 69.2307 33.6025 68.2964 33.6025C67.5308 33.6025 66.9247 33.4339 66.478 33.0967C66.0314 32.7594 65.8081 32.3424 65.8081 31.8457C65.8081 31.4902 65.9038 31.1895 66.0952 30.9434C66.2866 30.7018 66.5327 30.5811 66.8335 30.5811C67.0112 30.5811 67.173 30.6403 67.3189 30.7588C67.4693 30.8773 67.5445 31.0049 67.5445 31.1416C67.5445 31.2783 67.5217 31.3763 67.4761 31.4355C67.4305 31.4948 67.3804 31.5495 67.3257 31.5996C67.2756 31.6497 67.2186 31.6953 67.1548 31.7363C67.091 31.7819 67.0591 31.8411 67.0591 31.9141C67.0591 32.0827 67.1571 32.2217 67.353 32.3311C67.5536 32.4404 67.8338 32.4951 68.1939 32.4951C68.8456 32.4951 69.34 32.2786 69.6773 31.8457C70.0191 31.4173 70.19 30.8112 70.19 30.0273V29.4189C69.6841 29.8747 69.078 30.1025 68.3716 30.1025C67.4328 30.1025 66.6421 29.7858 65.9995 29.1523C65.357 28.5189 65.0357 27.6621 65.0357 26.582C65.0357 25.4974 65.3775 24.6178 66.0611 23.9434C66.7446 23.2643 67.6128 22.9248 68.6655 22.9248C69.2033 22.9248 69.6887 23.0319 70.1216 23.2461C70.2629 23.3145 70.3882 23.3965 70.4976 23.4922ZM78.6958 30L76.9253 29.959C76.7202 29.959 76.5698 29.9613 76.4741 29.9658L76.1733 29.9795C75.9455 29.9932 75.7449 30 75.5718 30C75.1297 30 74.9087 29.8314 74.9087 29.4941C74.9087 29.3301 74.977 29.2025 75.1138 29.1113C75.255 29.0202 75.4419 28.9746 75.6743 28.9746H76.2895V24.5176C76.2895 24.2441 76.2303 24.1074 76.1118 24.1074C76.0571 24.1074 75.9705 24.1234 75.852 24.1553C75.7381 24.1872 75.6082 24.2031 75.4624 24.2031C75.3211 24.2031 75.1935 24.1553 75.0796 24.0596C74.9656 23.9639 74.9087 23.834 74.9087 23.6699C74.9087 23.3236 75.1548 23.1253 75.647 23.0752C75.9523 23.0479 76.2007 23.0068 76.3921 22.9521C76.588 22.8975 76.7772 22.8701 76.9595 22.8701C77.3013 22.8701 77.4721 23.0889 77.4721 23.5264V24.5791C77.8276 23.7952 78.411 23.2826 79.2221 23.041C79.4819 22.9635 79.7417 22.9248 80.0014 22.9248C80.4891 22.9248 80.881 23.041 81.1772 23.2734C81.478 23.5013 81.6284 23.8294 81.6284 24.2578C81.6284 24.6862 81.5532 25.0143 81.4028 25.2422C81.2524 25.4701 81.0519 25.584 80.8013 25.584C80.4093 25.584 80.2134 25.4062 80.2134 25.0508C80.2134 24.9779 80.2202 24.9186 80.2339 24.873L80.2886 24.7227C80.3296 24.6087 80.3501 24.4925 80.3501 24.374C80.3501 24.1143 80.129 23.9844 79.687 23.9844C79.2449 23.9844 78.812 24.235 78.3882 24.7363C77.9689 25.2376 77.6636 25.8984 77.4721 26.7188V28.9746H78.5796C79.1629 28.9746 79.4546 29.1546 79.4546 29.5146C79.4546 29.6423 79.3976 29.7562 79.2837 29.8564C79.1743 29.9521 78.9783 30 78.6958 30ZM85.52 26.4863C85.52 27.2383 85.7342 27.849 86.1625 28.3184C86.5955 28.7878 87.1446 29.0225 87.81 29.0225C88.4754 29.0225 89.0108 28.8014 89.4164 28.3594C89.8266 27.9173 90.0317 27.3271 90.0317 26.5889C90.0317 25.363 89.5965 24.5632 88.726 24.1895C88.4389 24.0664 88.1153 24.0049 87.7553 24.0049C87.0672 24.0049 86.5226 24.2305 86.1215 24.6816C85.7205 25.1283 85.52 25.7298 85.52 26.4863ZM84.3305 26.5615C84.3305 25.5179 84.6609 24.652 85.3217 23.9639C85.9871 23.2712 86.8211 22.9248 87.8237 22.9248C88.8308 22.9248 89.6489 23.2461 90.2778 23.8887C90.9112 24.5267 91.228 25.3812 91.228 26.4521C91.228 27.5186 90.8976 28.3936 90.2368 29.0771C89.5805 29.7607 88.7397 30.1025 87.7143 30.1025C86.6935 30.1025 85.8731 29.7721 85.2534 29.1113C84.6381 28.4505 84.3305 27.6006 84.3305 26.5615Z" fill="black"/>
</g>
<path d="M35.0875 9.90877C37.6286 7.97015 37.7831 5.03126 37.7883 4.90713L37.8275 4L36.6385 4.02965C36.4759 4.03385 32.6232 4.15178 30.082 6.09039C28.0083 7.67235 27.5241 9.92071 27.4131 10.7615L26.0119 11.829C26.0632 11.5569 26.0931 11.2774 26.0931 10.9909C26.0931 8.24959 23.4783 6.08796 23.367 5.99725L22.5538 5.33482L21.7406 5.99725C21.6292 6.08796 19.0145 8.24959 19.0145 10.9909C19.0145 12.995 20.411 14.6883 21.2062 15.4901L19.6714 16.6592C19.7187 16.3974 19.7462 16.1286 19.7462 15.8536C19.7462 13.1121 17.1312 10.9504 17.0198 10.8597L16.2069 10.1973L15.3937 10.8597C15.2824 10.9504 12.6673 13.1121 12.6673 15.8536C12.6673 17.8444 14.0459 19.5288 14.8437 20.3371L13.2457 21.5544C13.2924 21.2951 13.319 21.0289 13.319 20.7568C13.319 18.0152 10.704 15.8536 10.5927 15.7629L9.77944 15.1005L8.96651 15.7629C8.85518 15.8536 6.24013 18.0152 6.24013 20.7568C6.24013 22.7443 7.61434 24.4265 8.41248 25.2362L0.129547 31.5466L1.7038 32.7493L10.1604 26.3069C11.0101 26.7976 12.6261 27.5884 14.6048 27.8729C14.4196 27.245 14.3213 26.5921 14.3213 25.9219C14.3213 24.7566 14.6176 23.643 15.1548 22.6224C15.0939 22.6281 15.0333 22.6341 14.973 22.6405L15.267 22.4166C16.447 20.3291 18.6468 18.6531 21.3851 17.7561C21.3848 17.7561 21.3848 17.7561 21.3845 17.7561L22.9167 16.5888C23.2162 16.7587 23.5998 16.959 24.0523 17.1605C24.6742 17.0818 25.3123 17.0402 25.9629 17.0402C27.7978 17.0402 29.5344 17.3661 31.0797 17.9455C33.4938 17.3973 35.1921 16.2025 35.2834 16.1372L36.1518 15.5171L35.2834 14.8967C35.1649 14.8117 32.3312 12.8169 28.7377 12.8169C28.422 12.8169 28.1126 12.8331 27.8103 12.8612L29.0186 11.9405C30.1606 11.8483 33.0467 11.4655 35.0875 9.90877V9.90877Z" fill="#18B444"/>
<path d="M26.1119 24.551C25.121 24.551 24.3148 25.1659 24.3148 25.9219C24.3148 26.6779 25.121 27.293 26.1119 27.293C27.1029 27.293 27.9091 26.6779 27.9091 25.9219C27.9091 25.1659 27.1029 24.551 26.1119 24.551V24.551Z" fill="black"/>
<path d="M25.9818 18.844C20.8659 18.844 16.7039 22.0192 16.7039 25.9219C16.7039 29.8248 20.8659 33 25.9818 33C31.0977 33 35.2597 29.8248 35.2597 25.9219C35.2597 22.0192 31.0977 18.844 25.9818 18.844ZM30.5022 23.7746L29.6339 24.4371C29.7785 24.6362 29.8948 24.8491 29.9792 25.0721H31.2064V26.7717H29.9792C29.8948 26.9948 29.7785 27.2076 29.6339 27.4067L30.5022 28.0692L28.9268 29.271L28.0585 28.6086C27.7972 28.7192 27.5183 28.8077 27.2261 28.8721V29.8084H24.9981V28.8721C24.7056 28.8077 24.4267 28.7192 24.1657 28.6086L23.2972 29.271L21.7217 28.0692L22.5903 27.4067C22.4454 27.2076 22.3291 26.9948 22.2448 26.7717H21.0175V25.0721H22.2448C22.3291 24.8491 22.4454 24.6362 22.5903 24.4371L21.7217 23.7746L23.2972 22.5728L24.1657 23.2352C24.4267 23.1248 24.7056 23.0361 24.9981 22.9717V22.0354H27.2261V22.9717C27.5183 23.0361 27.7972 23.1248 28.0585 23.2352L28.9268 22.5728L30.5022 23.7746Z" fill="black"/>
<defs>
<filter id="filter0_d" x="38.3605" y="4.91895" width="66.9509" height="29.6836" filterUnits="userSpaceOnUse" color-interpolation-filters="sRGB">
<feFlood flood-opacity="0" result="BackgroundImageFix"/>
<feColorMatrix in="SourceAlpha" type="matrix" values="0 0 0 0 0 0 0 0 0 0 0 0 0 0 0 0 0 0 127 0"/>
<feOffset dx="1" dy="1"/>
<feColorMatrix type="matrix" values="0 0 0 0 0 0 0 0 0 0 0 0 0 0 0 0 0 0 0.2 0"/>
<feBlend mode="normal" in2="BackgroundImageFix" result="effect1_dropShadow"/>
<feBlend mode="normal" in="SourceGraphic" in2="effect1_dropShadow" result="shape"/>
</filter>
</defs>
</svg>
