<svg width="105" height="35" viewBox="0 0 105 35" fill="none" xmlns="http://www.w3.org/2000/svg">
<g style="mix-blend-mode:darken" filter="url(#filter0_d)">
<path d="M48.9783 11.192C48.1783 11.192 47.4503 11.004 46.7943 10.628C46.1463 10.244 45.6303 9.724 45.2463 9.068C44.8703 8.404 44.6823 7.672 44.6823 6.872C44.6823 6.056 44.8663 5.32 45.2343 4.664C45.6023 4.008 46.1063 3.496 46.7463 3.128C47.3863 2.752 48.1063 2.564 48.9063 2.564C49.3383 2.564 49.7623 2.616 50.1783 2.72C50.5943 2.824 50.9503 2.972 51.2463 3.164L50.9223 5.024C50.3463 4.808 49.8263 4.7 49.3623 4.7C48.7223 4.7 48.2303 4.888 47.8863 5.264C47.5423 5.632 47.3703 6.164 47.3703 6.86C47.3703 7.54 47.5503 8.072 47.9103 8.456C48.2783 8.832 48.7863 9.02 49.4343 9.02C49.6823 9.02 49.9143 8.996 50.1303 8.948C50.3463 8.9 50.6103 8.812 50.9223 8.684L51.2583 10.58C50.5623 10.988 49.8023 11.192 48.9783 11.192ZM56.523 11.096C55.851 11.096 55.251 10.964 54.723 10.7C54.203 10.436 53.795 10.072 53.499 9.608C53.211 9.136 53.067 8.596 53.067 7.988C53.067 7.38 53.215 6.844 53.511 6.38C53.807 5.908 54.215 5.544 54.735 5.288C55.263 5.032 55.863 4.904 56.535 4.904C57.215 4.904 57.815 5.036 58.335 5.3C58.863 5.556 59.271 5.916 59.559 6.38C59.847 6.844 59.991 7.38 59.991 7.988C59.991 8.604 59.843 9.148 59.547 9.62C59.259 10.084 58.851 10.448 58.323 10.712C57.803 10.968 57.203 11.096 56.523 11.096ZM56.547 9.296C56.875 9.296 57.143 9.176 57.351 8.936C57.567 8.688 57.675 8.372 57.675 7.988C57.675 7.604 57.567 7.292 57.351 7.052C57.143 6.804 56.875 6.68 56.547 6.68C56.219 6.68 55.947 6.804 55.731 7.052C55.523 7.292 55.419 7.604 55.419 7.988C55.419 8.372 55.523 8.688 55.731 8.936C55.947 9.176 56.219 9.296 56.547 9.296ZM62.2104 5.072H64.6224V6.296C64.8944 5.824 65.2024 5.476 65.5464 5.252C65.8984 5.02 66.3144 4.904 66.7944 4.904C67.2664 4.904 67.6744 5.024 68.0184 5.264C68.3704 5.496 68.6344 5.812 68.8104 6.212C69.3224 5.34 70.0664 4.904 71.0424 4.904C71.5064 4.904 71.9104 5.028 72.2544 5.276C72.6064 5.524 72.8784 5.884 73.0704 6.356C73.2624 6.82 73.3584 7.368 73.3584 8V11H70.8264V8C70.8264 7.592 70.7544 7.284 70.6104 7.076C70.4744 6.868 70.2824 6.764 70.0344 6.764C69.7624 6.764 69.5264 6.88 69.3264 7.112C69.1344 7.344 69.0384 7.624 69.0384 7.952V11H66.5304V8C66.5304 7.592 66.4584 7.284 66.3144 7.076C66.1784 6.868 65.9824 6.764 65.7264 6.764C65.4544 6.764 65.2224 6.88 65.0304 7.112C64.8384 7.344 64.7424 7.624 64.7424 7.952V11H62.2104V5.072ZM75.8468 5.072H78.3788V6.116C78.7628 5.308 79.4148 4.904 80.3348 4.904C80.8708 4.904 81.3628 5.04 81.8108 5.312C82.2668 5.576 82.6228 5.944 82.8788 6.416C83.1428 6.888 83.2748 7.416 83.2748 8C83.2748 8.584 83.1388 9.112 82.8668 9.584C82.6028 10.056 82.2428 10.428 81.7868 10.7C81.3388 10.964 80.8588 11.096 80.3468 11.096C79.4348 11.096 78.7788 10.692 78.3788 9.884V12.56L75.8468 13.04V5.072ZM79.5788 9.2C79.9068 9.2 80.1868 9.08 80.4188 8.84C80.6508 8.6 80.7668 8.32 80.7668 8C80.7668 7.664 80.6468 7.38 80.4068 7.148C80.1748 6.916 79.8988 6.8 79.5788 6.8C79.2508 6.8 78.9708 6.916 78.7388 7.148C78.5068 7.372 78.3908 7.64 78.3908 7.952V8C78.3908 8.336 78.5068 8.62 78.7388 8.852C78.9788 9.084 79.2588 9.2 79.5788 9.2ZM87.6226 11.096C86.9506 11.096 86.4266 10.88 86.0506 10.448C85.6746 10.016 85.4866 9.428 85.4866 8.684V4.988H88.0306V8.576C88.0306 8.76 88.0786 8.904 88.1746 9.008C88.2786 9.104 88.4106 9.152 88.5706 9.152C88.7306 9.152 88.8946 9.104 89.0626 9.008L89.1946 10.676C89.0186 10.812 88.7866 10.916 88.4986 10.988C88.2186 11.06 87.9266 11.096 87.6226 11.096ZM86.7586 4.088C86.3826 4.088 86.0626 3.972 85.7986 3.74C85.5426 3.5 85.4146 3.208 85.4146 2.864C85.4146 2.52 85.5506 2.232 85.8226 2C86.0946 1.768 86.4066 1.652 86.7586 1.652C87.1266 1.652 87.4426 1.772 87.7066 2.012C87.9786 2.252 88.1146 2.536 88.1146 2.864C88.1146 3.216 87.9786 3.508 87.7066 3.74C87.4346 3.972 87.1186 4.088 86.7586 4.088ZM93.3254 11.096C92.6454 11.096 92.1174 10.884 91.7414 10.46C91.3734 10.028 91.1894 9.44 91.1894 8.696V3.092L93.7214 2.72V8.516C93.7214 8.74 93.7734 8.904 93.8774 9.008C93.9894 9.104 94.1814 9.152 94.4534 9.152C94.6534 9.152 94.8494 9.104 95.0414 9.008L95.1254 10.688C94.5894 10.96 93.9894 11.096 93.3254 11.096ZM100.177 11.096C99.5126 11.096 98.9206 10.964 98.4006 10.7C97.8886 10.428 97.4886 10.06 97.2006 9.596C96.9126 9.124 96.7686 8.592 96.7686 8C96.7686 7.392 96.9166 6.852 97.2126 6.38C97.5086 5.908 97.9086 5.544 98.4126 5.288C98.9166 5.032 99.4766 4.904 100.093 4.904C100.685 4.904 101.189 5.036 101.605 5.3C102.029 5.556 102.345 5.908 102.553 6.356C102.761 6.796 102.865 7.292 102.865 7.844C102.865 7.988 102.857 8.092 102.841 8.156L99.2406 8.624C99.3366 8.904 99.4926 9.108 99.7086 9.236C99.9246 9.356 100.209 9.416 100.561 9.416C101.105 9.416 101.693 9.276 102.325 8.996L102.625 10.604C101.881 10.932 101.065 11.096 100.177 11.096ZM101.005 7.112C100.877 6.608 100.573 6.356 100.093 6.356C99.8046 6.356 99.5766 6.464 99.4086 6.68C99.2406 6.896 99.1526 7.176 99.1446 7.52L101.005 7.112Z" fill="#060606"/>
<path d="M59.2768 14.744H62.9248L65.3128 23H62.4928L62.1808 21.416H60.0448L59.6968 23H56.9968L59.2768 14.744ZM61.8928 19.94L61.1128 16.328L60.2968 19.94H61.8928ZM70.6434 25.748C70.2034 25.748 69.7834 25.704 69.3834 25.616L69.5754 23.84C69.8874 23.888 70.1754 23.912 70.4394 23.912C70.9354 23.912 71.3114 23.764 71.5674 23.468C71.8234 23.18 71.9754 22.692 72.0234 22.004C71.5514 22.668 70.8314 23 69.8634 23C69.3354 23 68.8474 22.864 68.3994 22.592C67.9594 22.32 67.6074 21.952 67.3434 21.488C67.0874 21.024 66.9594 20.516 66.9594 19.964C66.9594 19.404 67.0874 18.892 67.3434 18.428C67.5994 17.956 67.9474 17.584 68.3874 17.312C68.8354 17.04 69.3234 16.904 69.8514 16.904C70.3394 16.904 70.7634 17.032 71.1234 17.288C71.4914 17.536 71.7314 17.872 71.8434 18.296V16.904H74.3754V21.476C74.3754 22.876 74.0554 23.936 73.4154 24.656C72.7834 25.384 71.8594 25.748 70.6434 25.748ZM70.6434 21.2C70.9634 21.2 71.2394 21.088 71.4714 20.864C71.7034 20.632 71.8274 20.36 71.8434 20.048V19.952C71.8274 19.648 71.6994 19.38 71.4594 19.148C71.2274 18.916 70.9554 18.8 70.6434 18.8C70.3154 18.8 70.0354 18.92 69.8034 19.16C69.5714 19.392 69.4554 19.672 69.4554 20C69.4554 20.328 69.5714 20.612 69.8034 20.852C70.0354 21.084 70.3154 21.2 70.6434 21.2ZM76.9111 17.072H79.4431V18.296C79.6271 17.824 79.8751 17.476 80.1871 17.252C80.5071 17.02 80.8791 16.904 81.3031 16.904L81.6511 18.86C80.8911 18.86 80.3311 18.944 79.9711 19.112C79.6191 19.272 79.4431 19.528 79.4431 19.88V23H76.9111V17.072ZM86.7426 23.096C86.0706 23.096 85.4706 22.964 84.9426 22.7C84.4226 22.436 84.0146 22.072 83.7186 21.608C83.4306 21.136 83.2866 20.596 83.2866 19.988C83.2866 19.38 83.4346 18.844 83.7306 18.38C84.0266 17.908 84.4346 17.544 84.9546 17.288C85.4826 17.032 86.0826 16.904 86.7546 16.904C87.4346 16.904 88.0346 17.036 88.5546 17.3C89.0826 17.556 89.4906 17.916 89.7786 18.38C90.0666 18.844 90.2106 19.38 90.2106 19.988C90.2106 20.604 90.0626 21.148 89.7666 21.62C89.4786 22.084 89.0706 22.448 88.5426 22.712C88.0226 22.968 87.4226 23.096 86.7426 23.096ZM86.7666 21.296C87.0946 21.296 87.3626 21.176 87.5706 20.936C87.7866 20.688 87.8946 20.372 87.8946 19.988C87.8946 19.604 87.7866 19.292 87.5706 19.052C87.3626 18.804 87.0946 18.68 86.7666 18.68C86.4386 18.68 86.1666 18.804 85.9506 19.052C85.7426 19.292 85.6386 19.604 85.6386 19.988C85.6386 20.372 85.7426 20.688 85.9506 20.936C86.1666 21.176 86.4386 21.296 86.7666 21.296Z" fill="#18B444"/>
</g>
<g clip-path="url(#clip0)">
<path d="M37.9198 6.99839C40.6646 4.70228 40.8315 1.22143 40.8371 1.07442L40.8794 0L39.5951 0.0351151C39.4195 0.0400941 35.258 0.179768 32.5132 2.47588C30.2733 4.34956 29.7503 7.01254 29.6304 8.00834L28.1169 9.27275C28.1723 8.95042 28.2046 8.61945 28.2046 8.28009C28.2046 5.03325 25.3803 2.473 25.26 2.36555L24.3816 1.58097L23.5032 2.36555C23.383 2.473 20.5587 5.03325 20.5587 8.28009C20.5587 10.6538 22.0671 12.6593 22.9261 13.6089L21.2683 14.9936C21.3193 14.6836 21.3491 14.3652 21.3491 14.0395C21.3491 10.7924 18.5244 8.23214 18.4042 8.12469L17.5261 7.34011L16.6477 8.12469C16.5275 8.23214 13.7029 10.7924 13.7029 14.0395C13.7029 16.3974 15.1919 18.3925 16.0537 19.3497L14.3276 20.7916C14.378 20.4844 14.4068 20.1692 14.4068 19.8469C14.4068 16.5998 11.5822 14.0395 11.4619 13.9321L10.5836 13.1475L9.70547 13.9321C9.58522 14.0395 6.7606 16.5998 6.7606 19.8469C6.7606 22.2009 8.24494 24.1933 9.10704 25.1524L0.160309 32.6264L1.86072 34.0509L10.995 26.4205C11.9129 27.0017 13.6584 27.9383 15.7956 28.2753C15.5955 27.5316 15.4894 26.7582 15.4894 25.9645C15.4894 24.5842 15.8094 23.2653 16.3897 22.0565C16.3239 22.0633 16.2585 22.0704 16.1933 22.078L16.5109 21.8128C17.7854 19.3403 20.1616 17.3553 23.1193 16.2929C23.119 16.2929 23.119 16.2929 23.1187 16.2929L24.7737 14.9103C25.0972 15.1116 25.5115 15.3487 26.0003 15.5874C26.672 15.4942 27.3613 15.4449 28.064 15.4449C30.0459 15.4449 31.9217 15.8309 33.5908 16.5172C36.1984 15.8678 38.0328 14.4528 38.1315 14.3754L39.0694 13.6409L38.1315 12.9061C38.0034 12.8055 34.9427 10.4428 31.0611 10.4428C30.7201 10.4428 30.386 10.4619 30.0594 10.4952L31.3646 9.40482C32.5981 9.29555 35.7155 8.8422 37.9198 6.99839V6.99839Z" fill="#18B444"/>
<path d="M28.2046 24.3408C27.1342 24.3408 26.2634 25.069 26.2634 25.9645C26.2634 26.8599 27.1342 27.5884 28.2046 27.5884C29.2749 27.5884 30.1458 26.8599 30.1458 25.9645C30.1458 25.069 29.2749 24.3408 28.2046 24.3408V24.3408Z" fill="black"/>
<path d="M28.064 17.5814C22.5381 17.5814 18.0425 21.3421 18.0425 25.9645C18.0425 30.5871 22.5381 34.3478 28.064 34.3478C33.5899 34.3478 38.0855 30.5871 38.0855 25.9645C38.0855 21.3421 33.5899 17.5814 28.064 17.5814ZM32.9466 23.4213L32.0088 24.2058C32.165 24.4417 32.2906 24.6938 32.3817 24.9579H33.7073V26.971H32.3817C32.2906 27.2352 32.165 27.4873 32.0088 27.7231L32.9466 28.5077L31.245 29.9312L30.3071 29.1466C30.0249 29.2776 29.7237 29.3824 29.408 29.4587V30.5677H27.0015V29.4587C26.6855 29.3824 26.3842 29.2776 26.1024 29.1466L25.1642 29.9312L23.4625 28.5077L24.4007 27.7231C24.2442 27.4873 24.1186 27.2352 24.0275 26.971H22.7019V24.9579H24.0275C24.1186 24.6938 24.2442 24.4417 24.4007 24.2058L23.4625 23.4213L25.1642 21.9978L26.1024 22.7824C26.3842 22.6516 26.6855 22.5465 27.0015 22.4703V21.3613H29.408V22.4703C29.7237 22.5465 30.0249 22.6516 30.3071 22.7824L31.245 21.9978L32.9466 23.4213Z" fill="black"/>
</g>
<defs>
<filter id="filter0_d" x="44.6823" y="1.65199" width="59.1823" height="25.096" filterUnits="userSpaceOnUse" color-interpolation-filters="sRGB">
<feFlood flood-opacity="0" result="BackgroundImageFix"/>
<feColorMatrix in="SourceAlpha" type="matrix" values="0 0 0 0 0 0 0 0 0 0 0 0 0 0 0 0 0 0 127 0"/>
<feOffset dx="1" dy="1"/>
<feColorMatrix type="matrix" values="0 0 0 0 0 0 0 0 0 0 0 0 0 0 0 0 0 0 0.2 0"/>
<feBlend mode="normal" in2="BackgroundImageFix" result="effect1_dropShadow"/>
<feBlend mode="normal" in="SourceGraphic" in2="effect1_dropShadow" result="shape"/>
</filter>
<clipPath id="clip0">
<rect width="41.0454" height="34.3478" fill="white"/>
</clipPath>
</defs>
</svg>
