<svg width="512" height="512" viewBox="0 0 512 512" fill="none" xmlns="http://www.w3.org/2000/svg">
<path d="M56 168H88V184H56V168ZM504 32V112C504 125.232 493.232 136 480 136H456V152H472V168H432V264H394.352C396.768 269.008 398.496 274.368 399.328 280H448V360H504V504H376V360H432V296H399.36C395.456 323.088 372.152 344 344 344H168C137.128 344 112 318.872 112 288H96V360H144C157.232 360 168 370.768 168 384V456H184V480C184 493.232 173.232 504 160 504H32C18.768 504 8 493.232 8 480V456H24V384C24 370.768 34.768 360 48 360H80V272H114.52C116.256 266.216 118.888 260.856 122.296 256H64V216H32C18.768 216 8 205.232 8 192V32C8 18.768 18.768 8 32 8H112C125.232 8 136 18.768 136 32V192C136 205.232 125.232 216 112 216H80V240H139.312C144.456 236.92 150.112 234.584 156.2 233.28C165.544 208.736 189.448 192 216 192C225.008 192 233.888 193.92 242.096 197.608C253.752 179.392 274.104 168 296 168C331.288 168 360 196.712 360 232C360 232.784 359.984 233.568 359.944 234.376C368.744 237.008 376.6 241.768 382.984 248H416V168H376V152H392V136H368C354.768 136 344 125.232 344 112V32C344 18.768 354.768 8 368 8H480C493.232 8 504 18.768 504 32ZM120 56H24V136H120V56ZM24 32V40H120V32C120 27.584 116.416 24 112 24H32C27.584 24 24 27.584 24 32ZM32 200H112C116.416 200 120 196.416 120 192V152H24V192C24 196.416 27.584 200 32 200ZM168 472H24V480C24 484.416 27.584 488 32 488H160C164.416 488 168 484.416 168 480V472ZM144 376H48C43.584 376 40 379.584 40 384V456H152V384C152 379.584 148.416 376 144 376ZM488 488V440H392V488H488ZM488 376H392V424H488V376ZM384 288C384 268.44 369.416 251.464 350.072 248.512L342.16 247.312L343.368 239.4C343.8 236.56 344 234.208 344 232C344 205.528 322.472 184 296 184C277.48 184 260.424 194.88 252.544 211.736L248.736 219.872L241.096 215.16C233.504 210.48 224.832 208 216 208C194.8 208 175.848 222.232 169.928 242.608L168.448 247.688L163.2 248.32C143.136 250.72 128 267.776 128 288C128 310.056 145.944 328 168 328H344C366.056 328 384 310.056 384 288ZM360 32V88H488V32C488 27.584 484.416 24 480 24H368C363.584 24 360 27.584 360 32ZM440 136H408V152H440V136ZM488 112V104H360V112C360 116.416 363.584 120 368 120H480C484.416 120 488 116.416 488 112ZM424 392H408V408H424V392ZM456 472H472V456H456V472ZM472 392H440V408H472V392ZM408 472H440V456H408V472Z" fill="url(#paint0_linear)"/>
<defs>
<linearGradient id="paint0_linear" x1="256" y1="504" x2="256" y2="8" gradientUnits="userSpaceOnUse">
<stop stop-color="#51EEA2"/>
<stop offset="1" stop-color="#0BB1D3"/>
</linearGradient>
</defs>
</svg>
