<svg width="213" height="217" viewBox="0 0 213 217" fill="none" xmlns="http://www.w3.org/2000/svg">
<g clip-path="url(#clip0)">
<path d="M71.8268 28.234C71.8143 28.2153 71.8018 28.2043 71.7909 28.1903C70.9297 26.8149 69.8435 25.5958 68.5713 24.5971V36.4534L73.9337 44.3602C75.4262 46.4732 75.3075 51.126 73.9337 54.2628L73.6226 47.547L66.7364 36.9989V23.3656C65.944 22.9233 65.1063 22.556 64.228 22.2715V29.625H55.6069V22.2762C54.727 22.5607 53.8861 22.9279 53.0969 23.3718V37.002L46.2044 47.5501L45.895 94.8533C45.895 97.6931 48.2003 100 51.0401 100C53.8799 100 56.1868 97.6931 56.1868 94.8533C56.1868 94.8533 58.6296 61.1834 59.9112 61.1834C61.185 61.1834 63.5559 94.8533 63.5559 94.8533C63.5559 97.6931 65.8628 100 68.6995 100C71.5471 100 73.8477 97.6931 73.8477 94.8533L73.893 61.3553C75.4653 62.1118 77.5799 62.0117 78.9209 60.2769C85.5149 51.7262 77.5346 35.811 71.8268 28.234ZM57.4121 42.3347C56.5243 42.3347 55.807 41.6126 55.807 40.7248C55.807 39.8371 56.5243 39.1166 57.4121 39.1166C58.2998 39.1166 59.0203 39.8371 59.0203 40.7248C59.0234 41.6141 58.3045 42.3347 57.4121 42.3347ZM62.4103 42.3347C61.5272 42.3347 60.8052 41.6126 60.8052 40.7248C60.8052 39.8371 61.5272 39.1166 62.4103 39.1166C63.2996 39.1166 64.0201 39.8371 64.0201 40.7248C64.0201 41.6141 63.2996 42.3347 62.4103 42.3347Z" fill="#30E9BC"/>
<path d="M51.2542 36.4519V24.6034C49.771 25.7741 37.2583 42.8036 36.7801 43.7679C34.6389 44.3759 32.4727 44.8745 30.294 45.3277V35.9471C35.7095 35.4329 39.9606 30.8645 39.9606 25.3161V16.8545H38.1226V25.3161C38.1226 28.5764 36.344 31.4224 33.7121 32.9588V16.8404H31.8741V33.7715C30.5378 34.1888 28.245 34.2138 26.8196 33.809V16.8358H24.9832V33.0416C22.2715 31.5272 20.432 28.6326 20.432 25.3161V16.8545H18.594V25.3161C18.594 30.9082 22.9155 35.5032 28.395 35.9549V45.7153C28.3622 45.7216 28.3294 45.7278 28.2981 45.7341C24.3393 46.5249 25.1942 51.77 28.395 52.7359V99.9953H30.2924V52.8156C33.7918 52.117 37.274 51.3762 40.6764 50.2775C42.6895 49.6242 44.1523 47.3704 51.2542 36.4519Z" fill="#30E9BC"/>
<path d="M56.5212 28.7045H63.3012V22.0105C62.2181 21.7386 61.085 21.5901 59.919 21.5901C58.7468 21.5901 57.609 21.7401 56.5212 22.0121V28.7045Z" fill="#30E9BC"/>
<path d="M52.6327 14.1756C53.0453 18.0079 56.1493 20.9978 59.9112 20.9978C63.6747 20.9978 66.7818 18.0063 67.1913 14.1756C71.3517 13.5927 74.0415 10.6294 74.1634 10.4887C74.8683 9.69633 74.7933 8.48663 74.0009 7.77863C73.21 7.0675 71.9925 7.13627 71.2814 7.92242C71.2564 7.94586 69.3856 9.96984 66.6755 10.3543C66.4926 9.8995 66.266 9.46658 66.0066 9.06022C66.0175 9.03365 65.0719 0.575153 65.0719 0.575153C65.0719 0.257881 64.7265 0 64.3061 0H54.9349C54.5113 0 54.1675 0.257881 54.1675 0.575153C54.1675 0.575153 53.4845 9.28684 53.622 9.38999C53.4485 9.70101 53.2797 10.0214 53.1485 10.3574C50.454 9.9714 48.5926 7.97712 48.5426 7.92398C47.8361 7.13315 46.6202 7.06125 45.8246 7.76613C45.0276 8.47256 44.9525 9.69164 45.659 10.4887C45.7856 10.6294 48.4722 13.5927 52.6327 14.1756ZM54.5863 9.55566H65.2392C65.4127 9.83074 65.5643 10.123 65.6971 10.4231H54.1253C54.2628 10.1246 54.4082 9.83074 54.5863 9.55566ZM66.2519 14.2616C65.8143 17.5437 63.1386 20.0772 59.9065 20.0772C56.6822 20.0772 54.0112 17.5437 53.5673 14.2616C53.7283 14.2694 66.0988 14.2694 66.2519 14.2616Z" fill="#30E9BC"/>
</g>
<g clip-path="url(#clip1)">
<path d="M63.3333 150H68.3333C69.2537 150 70 149.254 70 148.333V146.667C70 142.985 67.0149 140 63.3333 140H53.3333C49.6517 140 46.6666 142.985 46.6666 146.667V148.333C46.6666 149.254 47.4129 150 48.3333 150H53.3333C55.2539 149.989 57.076 149.151 58.3333 147.7C59.5914 149.151 61.4135 149.989 63.3333 150ZM66.6666 146.667H63.3333C61.4925 146.667 60 145.174 60 143.333H63.3333C65.1741 143.333 66.6666 144.826 66.6666 146.667ZM53.3333 146.667H50C50 144.826 51.4925 143.333 53.3333 143.333H56.6666C56.6666 145.174 55.1741 146.667 53.3333 146.667Z" fill="#30E9BC"/>
<path d="M71.6666 185H45C44.0796 185 43.3333 185.746 43.3333 186.667V196.667C43.3333 197.587 44.0796 198.333 45 198.333C45.9204 198.333 46.6666 197.587 46.6666 196.667V188.333H70V196.667C70 197.587 70.7462 198.333 71.6666 198.333C72.5871 198.333 73.3333 197.587 73.3333 196.667V186.667C73.3333 185.746 72.5871 185 71.6666 185Z" fill="#30E9BC"/>
<path d="M80 155H76.6666C74.5532 155.006 72.6717 156.34 71.9669 158.333H68.3333V155.35C73.527 151.97 76.6617 146.196 76.6666 140H78.3333C81.0945 140 83.3333 137.761 83.3333 135V131.667H88.3333C89.2537 131.667 90 130.92 90 130C90 125.398 86.2695 121.667 81.6666 121.667H80C79.1739 111.519 71.3948 103.316 61.3053 101.953C51.2158 100.59 41.5389 106.436 38.0501 116C37.3657 117.822 36.9279 119.728 36.7504 121.667H35C30.3979 121.667 26.6666 125.398 26.6666 130C26.6666 130.92 27.4129 131.667 28.3333 131.667H33.3333V135C33.3333 137.761 35.5721 140 38.3333 140H40C40.0057 146.196 43.1404 151.97 48.3333 155.35V158.333H44.7005C43.9957 156.34 42.1142 155.006 40 155H38.3333C37.4129 155 36.6666 155.746 36.6666 156.667C36.6666 157.587 37.4129 158.333 38.3333 158.333H40C40.9204 158.333 41.6666 159.08 41.6666 160V175C41.6666 176.841 40.1741 178.333 38.3333 178.333C36.4925 178.333 35 176.841 35 175V160C35 159.08 34.2537 158.333 33.3333 158.333H31.6666C30.7462 158.333 30 159.08 30 160C30 160.92 30.7462 161.667 31.6666 161.667V196.667C31.6666 197.587 32.4129 198.333 33.3333 198.333C34.2537 198.333 35 197.587 35 196.667V180.733C36.0066 181.34 37.1582 181.662 38.3333 181.667C42.0149 181.667 45 178.682 45 175H71.6666C71.6666 178.682 74.6517 181.667 78.3333 181.667C79.5084 181.662 80.66 181.34 81.6666 180.733V196.667C81.6666 197.587 82.4129 198.333 83.3333 198.333C84.2537 198.333 85 197.587 85 196.667V160C85 157.239 82.7612 155 80 155ZM80 135C80 135.92 79.2537 136.667 78.3333 136.667H76.6666V131.667H80V135ZM40.6998 118.333H70.5004C71.4209 118.333 72.1671 117.587 72.1671 116.667C72.1671 115.746 71.4209 115 70.5004 115H42.0166C45.699 107.668 53.8061 103.674 61.8636 105.225C69.9218 106.775 75.9676 113.491 76.6666 121.667H40C40.1285 120.536 40.3629 119.42 40.6998 118.333V118.333ZM35 125H81.6666C83.7866 124.999 85.677 126.335 86.3834 128.333H30.2832C30.9904 126.335 32.88 124.999 35 125ZM38.3333 136.667C37.4129 136.667 36.6666 135.92 36.6666 135V131.667H40V136.667H38.3333ZM43.3333 140V131.667H73.3333V140C73.3333 148.284 66.6178 155 58.3333 155C50.0488 155 43.3333 148.284 43.3333 140ZM58.3333 158.333C60.6152 158.327 62.8751 157.897 65 157.067V160C65 163.682 62.0149 166.667 58.3333 166.667C54.6517 166.667 51.6666 163.682 51.6666 160V157.067C53.7915 157.897 56.0522 158.327 58.3333 158.333ZM45 171.667V161.667H48.483C49.3212 166.451 53.4765 169.941 58.3333 169.941C63.1909 169.941 67.3453 166.451 68.1836 161.667H71.6666V171.667H45ZM78.3333 178.333C76.4925 178.333 75 176.841 75 175V160C75 159.08 75.7462 158.333 76.6666 158.333H80C80.9204 158.333 81.6666 159.08 81.6666 160V175C81.6666 176.841 80.1741 178.333 78.3333 178.333Z" fill="#30E9BC"/>
<path d="M68.3333 136.667C68.3333 137.587 67.5871 138.333 66.6667 138.333C65.7463 138.333 65 137.587 65 136.667C65 135.746 65.7463 135 66.6667 135C67.5871 135 68.3333 135.746 68.3333 136.667Z" fill="#30E9BC"/>
<path d="M51.6666 136.667C51.6666 137.587 50.9204 138.333 50 138.333C49.0796 138.333 48.3333 137.587 48.3333 136.667C48.3333 135.746 49.0796 135 50 135C50.9204 135 51.6666 135.746 51.6666 136.667Z" fill="#30E9BC"/>
<path d="M90.6331 159.434C89.7819 159.084 88.8086 159.491 88.4586 160.342C88.1087 161.193 88.5156 162.167 89.3668 162.517C93.7777 164.297 96.6658 168.577 96.6666 173.333V196.667C96.6666 197.587 97.4129 198.333 98.3333 198.333C99.2537 198.333 100 197.587 100 196.667V173.333C99.9992 167.225 96.2947 161.728 90.6331 159.434Z" fill="#30E9BC"/>
<path d="M25 141.667C24.0796 141.667 23.3333 142.413 23.3333 143.333V156.667H20V143.333C20 142.413 19.2537 141.667 18.3333 141.667C17.4129 141.667 16.6666 142.413 16.6666 143.333V156.667H13.3333V143.333C13.3333 142.413 12.5871 141.667 11.6666 141.667C10.7462 141.667 9.99998 142.413 9.99998 143.333V156.667H6.66665V143.333C6.66665 142.413 5.92039 141.667 4.99998 141.667C4.07957 141.667 3.33331 142.413 3.33331 143.333V165C3.3325 168.961 6.11977 172.375 9.99998 173.167V196.667C9.99998 197.587 10.7462 198.333 11.6666 198.333C12.5871 198.333 13.3333 197.587 13.3333 196.667V173.333H16.6666V196.667C16.6666 197.587 17.4129 198.333 18.3333 198.333C19.2537 198.333 20 197.587 20 196.667V173.333C20 173.333 20 173.217 20 173.167C23.881 172.375 26.6675 168.961 26.6666 165V143.333C26.6666 142.413 25.9204 141.667 25 141.667ZM23.3333 165C23.3333 167.761 21.0945 170 18.3333 170H11.6666C8.90542 170 6.66665 167.761 6.66665 165V160H23.3333V165Z" fill="#30E9BC"/>
<path d="M9.99951 126.667V131.667C9.99951 132.587 10.7458 133.333 11.6662 133.333C12.5866 133.333 13.3328 132.587 13.3328 131.667V126.667H14.9995C19.6024 126.667 23.3328 122.935 23.3328 118.333C23.3328 117.413 22.5866 116.667 21.6662 116.667C22.7567 115.229 23.3426 113.472 23.3328 111.667C23.3328 110.746 22.5866 110 21.6662 110H13.616C14.3232 108.001 16.2129 106.666 18.3328 106.667H21.6662C22.5866 106.667 23.3328 105.92 23.3328 105C23.3328 104.08 22.5866 103.333 21.6662 103.333H18.3328C16.5286 103.324 14.7708 103.91 13.3328 105V103.333C13.3328 102.413 12.5866 101.667 11.6662 101.667C10.7458 101.667 9.99951 102.413 9.99951 103.333V105C8.56152 103.91 6.80452 103.324 4.99951 103.333H1.66618C0.745766 103.333 -0.000490232 104.08 -0.000490232 105C-0.0102559 106.805 0.575682 108.562 1.66618 110C0.745766 110 -0.000490232 110.746 -0.000490232 111.667C-0.0102559 113.472 0.575682 115.229 1.66618 116.667C0.745766 116.667 -0.000490232 117.413 -0.000490232 118.333C-0.000490232 122.935 3.73079 126.667 8.33284 126.667H9.99951ZM19.7163 113.333C19.0099 115.332 17.1195 116.667 14.9995 116.667H13.616C14.3232 114.668 16.2129 113.333 18.3328 113.333H19.7163ZM4.99951 113.333C7.11946 113.333 9.00993 114.668 9.71631 116.667H8.33284C6.21289 116.667 4.32324 115.332 3.61605 113.333H4.99951ZM14.9995 123.333H13.616C14.3232 121.335 16.2129 119.999 18.3328 120H19.7163C19.0099 121.999 17.1195 123.334 14.9995 123.333ZM4.99951 106.667C7.11946 106.666 9.00993 108.001 9.71631 110H8.33284C6.21289 110.001 4.32324 108.665 3.61605 106.667H4.99951ZM3.61605 120H4.99951C7.11946 119.999 9.00993 121.335 9.71631 123.333H8.33284C6.21289 123.334 4.32324 121.999 3.61605 120Z" fill="#30E9BC"/>
</g>
<path d="M199.849 152.246V140.352C199.849 133.988 194.672 128.811 188.307 128.811L127.675 128.563L127.761 127.76C128.959 127.7 130.318 127.423 131.586 126.683C134.731 124.848 136.394 118.016 136.394 118.016C136.394 118.016 129.626 116.102 126.482 117.937C126.415 117.975 126.354 118.018 126.29 118.058C126.082 117.768 125.858 117.487 125.616 117.218C123.758 115.15 121.097 113.964 118.315 113.964C115.534 113.964 112.872 115.15 111.014 117.218C110.768 117.492 110.54 117.779 110.328 118.076C110.255 118.029 110.184 117.981 110.108 117.937C106.963 116.102 100.195 118.016 100.195 118.016C100.195 118.016 101.859 124.848 105.003 126.683C106.287 127.433 107.662 127.707 108.87 127.762L110.102 139.264C110.471 142.698 112.891 145.442 116.069 146.335L121.808 164.569C122.133 165.602 122.624 166.545 123.244 167.372V189.141H120.403V195H138.779V178.049L143.006 174.806C144.385 173.748 145.576 172.487 146.554 171.083H163.803C164.896 173.825 166.998 176.03 169.628 177.272V180.999H175.488V178.344C177.197 178.21 178.822 177.704 180.266 176.89V189.141H177.424V195H195.47V165.764L191.396 157.617V140.814C191.396 138.666 190.839 136.646 189.863 134.889C192.242 135.567 193.99 137.759 193.99 140.352V152.246H199.849ZM164.74 134.423V134.954C164.74 136.061 164.309 137.101 163.525 137.884C162.49 138.917 160.968 139.329 159.553 138.959L155.658 137.94C153.996 137.506 152.795 136.096 152.598 134.423H164.74ZM115.372 121.134C116.132 120.288 117.178 119.822 118.315 119.822C119.453 119.822 120.498 120.288 121.259 121.134C122.018 121.981 122.37 123.069 122.25 124.201L120.702 138.64C120.571 139.862 119.545 140.785 118.315 140.785C117.085 140.785 116.059 139.863 115.928 138.64L114.381 124.201C114.26 123.069 114.612 121.981 115.372 121.134ZM129.104 189.141V170.948C129.62 171.036 130.148 171.083 130.687 171.083H132.919V189.141H129.104V189.141ZM174.567 172.522C172.095 172.522 169.952 170.943 169.164 168.696L173.706 163.605L174.976 165.646C176.09 167.436 177.393 169.092 178.852 170.594C177.785 171.8 176.242 172.522 174.567 172.522V172.522ZM189.61 189.141H186.125V176.062C186.163 176.082 186.2 176.104 186.239 176.124L189.61 177.899V189.141ZM188.968 170.939C185.274 168.995 182.156 166.094 179.951 162.551L174.545 153.862L164.41 165.224H149.166C149.455 163.986 149.606 162.712 149.606 161.425V154.335H143.747V161.425C143.747 164.823 142.137 168.088 139.44 170.156L138.779 170.664V154.53H132.919V165.224H130.686C129.173 165.224 127.85 164.254 127.396 162.81L122.032 145.765C124.465 144.541 126.219 142.146 126.528 139.264L127.047 134.423H146.719C146.929 138.762 149.935 142.5 154.175 143.608L158.07 144.628C158.899 144.844 159.743 144.95 160.583 144.95C163.203 144.95 165.771 143.92 167.664 142.031C169.556 140.142 170.599 137.628 170.599 134.954V134.423H179.144C182.668 134.423 185.536 137.29 185.536 140.814V159.001L189.61 167.147V171.278L188.968 170.939Z" fill="#30E9BC"/>
<path d="M172.558 141.944C171.025 141.944 169.557 143.292 169.628 144.874C169.699 146.461 170.915 147.804 172.558 147.804C174.091 147.804 175.558 146.456 175.488 144.874C175.417 143.286 174.2 141.944 172.558 141.944V141.944Z" fill="#30E9BC"/>
<path d="M173.656 103.132C177.943 105.581 180.988 109.768 182.01 114.621L187.743 113.415C186.377 106.925 182.301 101.323 176.562 98.0443C170.822 94.766 163.927 94.1015 157.642 96.2209L159.515 101.772C164.214 100.187 169.368 100.683 173.656 103.132V103.132Z" fill="#30E9BC"/>
<path d="M167.837 113.316C166.451 112.525 164.786 112.364 163.269 112.876L165.06 118.179L170.537 117.026C170.207 115.46 169.223 114.107 167.837 113.316V113.316Z" fill="#30E9BC"/>
<path d="M173.475 116.413L179.209 115.206C178.357 111.158 175.815 107.663 172.235 105.618C168.655 103.574 164.354 103.159 160.433 104.481L162.306 110.033C164.642 109.246 167.201 109.491 169.328 110.706C171.456 111.921 172.967 114.001 173.475 116.413V116.413Z" fill="#30E9BC"/>
<g clip-path="url(#clip2)">
<path d="M195.993 94.142V88.8808H199.896V83.0229H195.993V78.858H190.151V83.0229H186.384V60.0402L189.877 62.8051L193.497 58.2068L159.807 31.5338L147.806 41.2643V28.9474C147.806 20.4597 141.645 13.3888 133.572 11.9942V6.56891H127.731V11.9942C119.659 13.3888 113.498 20.4597 113.498 28.9474V83.0229H109.541V78.858H103.699V83.0229H100V88.8808H103.699V94.142H100.287V99.9998H199.979V94.142H195.993ZM190.151 88.8808V94.142H186.384V88.8808H190.151ZM159.851 39.0319L180.543 55.4152V94.142H175.262V63.7915H144.747V94.142H139.77V55.3123L159.851 39.0319ZM156.278 81.938L150.588 88.9769V74.9434L156.278 81.938ZM160.05 86.5744L166.189 94.1206H153.95L160.05 86.5744ZM163.808 81.9266L169.42 74.9838V88.8258L163.808 81.9266ZM160.036 77.2902L153.82 69.6494H166.213L160.036 77.2902ZM126.429 58.5959L130.101 63.1514L133.929 60.0478V94.142H119.34V34.4703H141.965V45.9998L126.429 58.5959ZM130.652 17.6018C136.777 17.6018 141.778 22.5113 141.956 28.6125H119.348C119.526 22.5113 124.526 17.6018 130.652 17.6018ZM109.541 88.8808H113.498V94.142H109.541V88.8808Z" fill="#30E9BC"/>
<path d="M165.369 11.7111C168.625 15.4129 170.149 20.359 169.551 25.2808L175.349 25.9903C176.15 19.4084 174.108 12.7907 169.749 7.83539C165.389 2.87933 159.097 0.0236512 152.485 0L152.464 5.85785C157.408 5.8754 162.112 8.00934 165.369 11.7111V11.7111Z" fill="#30E9BC"/>
<path d="M156.599 19.4695C155.547 18.2732 154.028 17.5835 152.431 17.5781L152.412 23.1743L157.951 23.8525C158.145 22.2641 157.652 20.6665 156.599 19.4695Z" fill="#30E9BC"/>
<path d="M158.847 17.4812C160.463 19.3184 161.219 21.7743 160.921 24.2202L166.72 24.9298C167.22 20.8244 165.946 16.6961 163.227 13.6055C160.508 10.5148 156.583 8.7341 152.458 8.7196L152.438 14.5775C154.895 14.5858 157.231 15.644 158.847 17.4812V17.4812Z" fill="#30E9BC"/>
</g>
<defs>
<clipPath id="clip0">
<rect width="100" height="100" fill="white"/>
</clipPath>
<clipPath id="clip1">
<rect width="100" height="100" fill="white" transform="translate(0 100)"/>
</clipPath>
<clipPath id="clip2">
<rect width="100" height="100" fill="white" transform="translate(100)"/>
</clipPath>
</defs>
</svg>
