<svg width="40" height="36" viewBox="0 0 40 36" fill="none" xmlns="http://www.w3.org/2000/svg">
<path d="M35.0875 9.90877C37.6286 7.97015 37.7831 5.03126 37.7883 4.90713L37.8275 4L36.6385 4.02965C36.4759 4.03385 32.6232 4.15178 30.082 6.09039C28.0083 7.67235 27.5241 9.92071 27.4131 10.7615L26.0119 11.829C26.0632 11.5569 26.0931 11.2774 26.0931 10.9909C26.0931 8.24959 23.4783 6.08796 23.367 5.99725L22.5538 5.33482L21.7406 5.99725C21.6292 6.08796 19.0145 8.24959 19.0145 10.9909C19.0145 12.995 20.411 14.6883 21.2062 15.4901L19.6714 16.6592C19.7187 16.3974 19.7462 16.1286 19.7462 15.8536C19.7462 13.1121 17.1312 10.9504 17.0198 10.8597L16.2069 10.1973L15.3937 10.8597C15.2824 10.9504 12.6673 13.1121 12.6673 15.8536C12.6673 17.8444 14.0459 19.5288 14.8437 20.3371L13.2457 21.5544C13.2924 21.2951 13.319 21.0289 13.319 20.7568C13.319 18.0152 10.704 15.8536 10.5927 15.7629L9.77944 15.1005L8.96651 15.7629C8.85518 15.8536 6.24013 18.0152 6.24013 20.7568C6.24013 22.7443 7.61434 24.4265 8.41248 25.2362L0.129547 31.5466L1.7038 32.7493L10.1604 26.3069C11.0101 26.7976 12.6261 27.5884 14.6048 27.8729C14.4196 27.245 14.3213 26.5921 14.3213 25.9219C14.3213 24.7566 14.6176 23.643 15.1548 22.6224C15.0939 22.6281 15.0333 22.6341 14.973 22.6405L15.267 22.4166C16.447 20.3291 18.6468 18.6531 21.3851 17.7561C21.3848 17.7561 21.3848 17.7561 21.3845 17.7561L22.9167 16.5888C23.2162 16.7587 23.5998 16.959 24.0523 17.1605C24.6742 17.0818 25.3123 17.0402 25.9629 17.0402C27.7978 17.0402 29.5344 17.3661 31.0797 17.9455C33.4938 17.3973 35.1921 16.2025 35.2835 16.1372L36.1518 15.5171L35.2835 14.8967C35.1649 14.8117 32.3312 12.8169 28.7377 12.8169C28.422 12.8169 28.1126 12.8331 27.8103 12.8612L29.0186 11.9405C30.1606 11.8483 33.0467 11.4655 35.0875 9.90877Z" fill="#18B444"/>
<path d="M26.1119 24.551C25.121 24.551 24.3148 25.1659 24.3148 25.9219C24.3148 26.6779 25.121 27.293 26.1119 27.293C27.1029 27.293 27.9091 26.6779 27.9091 25.9219C27.9091 25.1659 27.1029 24.551 26.1119 24.551Z" fill="black"/>
<path d="M25.9818 18.844C20.8659 18.844 16.7039 22.0192 16.7039 25.9219C16.7039 29.8248 20.8659 33 25.9818 33C31.0977 33 35.2597 29.8248 35.2597 25.9219C35.2597 22.0192 31.0977 18.844 25.9818 18.844ZM30.5022 23.7746L29.6339 24.4371C29.7785 24.6362 29.8948 24.8491 29.9792 25.0721H31.2064V26.7717H29.9792C29.8948 26.9948 29.7785 27.2076 29.6339 27.4067L30.5022 28.0692L28.9268 29.271L28.0585 28.6086C27.7972 28.7192 27.5183 28.8077 27.2261 28.8721V29.8084H24.9981V28.8721C24.7056 28.8077 24.4267 28.7192 24.1657 28.6086L23.2972 29.271L21.7217 28.0692L22.5903 27.4067C22.4454 27.2076 22.3291 26.9948 22.2448 26.7717H21.0175V25.0721H22.2448C22.3291 24.8491 22.4454 24.6362 22.5903 24.4371L21.7217 23.7746L23.2972 22.5728L24.1657 23.2352C24.4267 23.1248 24.7056 23.0361 24.9981 22.9717V22.0354H27.2261V22.9717C27.5183 23.0361 27.7972 23.1248 28.0585 23.2352L28.9268 22.5728L30.5022 23.7746Z" fill="black"/>
</svg>
