<svg width="1920" height="840" viewBox="0 0 1920 840" fill="none" xmlns="http://www.w3.org/2000/svg">
<rect width="1920" height="840" fill="white"/>
<g clip-path="url(#clip0)">
<rect width="1920" height="840" fill="#FFFDFD"/>
<path d="M1962 540.198C1962 748.3 1683.58 917 1340.14 917C996.691 917 1278.51 575.792 718.273 540.198C158.036 504.605 1812.75 -319.679 1340.14 163.397C867.518 646.474 1453.02 635.179 1962 540.198Z" fill="#44C4C9"/>
<path d="M1623.08 514.836L1628.09 513.679L1629.52 513.312C1621.48 507.528 1615.31 498.607 1612.02 488.016C1608.73 477.425 1608.51 465.794 1611.4 455.034C1614.3 444.275 1620.13 435.026 1627.94 428.808C1635.75 422.591 1645.08 419.774 1654.39 420.821L1648.11 439.91L1663.43 423.095H1663.55C1673.92 427.254 1682.5 436.23 1687.41 448.048C1692.31 459.866 1693.14 473.557 1689.7 486.11C1689.45 487.01 1689.15 487.876 1688.87 488.75C1693.23 485.977 1697.4 482.762 1700.78 478.698C1707.62 470.46 1711.27 459.225 1715.32 445.382C1723.35 417.972 1731.06 390.179 1738.43 362.328C1729.73 356.881 1722.92 347.858 1719.22 336.879C1715.52 325.9 1715.17 313.685 1718.25 302.427C1718.65 300.978 1719.11 299.579 1719.62 298.204C1719.74 297.86 1719.86 297.519 1720 297.18C1720.5 295.864 1721.03 294.573 1721.62 293.332C1721.71 293.132 1721.82 292.94 1721.92 292.741C1722.43 291.691 1722.97 290.675 1723.54 289.692C1723.75 289.317 1723.96 288.951 1724.18 288.585C1724.83 287.527 1725.49 286.486 1726.2 285.503C1726.44 285.17 1726.69 284.862 1726.93 284.537C1727.48 283.812 1728.04 283.113 1728.62 282.43C1728.92 282.071 1729.22 281.713 1729.53 281.372C1729.61 281.28 1729.69 281.18 1729.77 281.097C1736.91 273.281 1746.08 268.738 1755.7 268.257C1765.32 267.776 1774.77 271.388 1782.42 278.465L1774.24 303.31L1789.38 286.652C1794.91 294.841 1798.12 304.951 1798.56 315.507C1799 326.062 1796.64 336.511 1791.82 345.329H1791.86C1791.7 345.628 1791.52 345.912 1791.35 346.211C1791.03 346.77 1790.71 347.311 1790.38 347.877C1789.95 348.569 1789.5 349.243 1789.05 349.901C1788.7 350.401 1788.36 350.901 1788.01 351.384C1787.49 352.083 1786.94 352.75 1786.39 353.416C1786.07 353.799 1785.76 354.207 1785.43 354.582C1784.56 355.559 1783.65 356.489 1782.72 357.372C1782.39 357.68 1782.03 357.947 1781.71 358.247C1781.06 358.83 1780.4 359.404 1779.71 359.912C1779.29 360.246 1778.85 360.545 1778.42 360.862C1777.79 361.312 1777.17 361.745 1776.52 362.153C1776.07 362.444 1775.61 362.727 1775.14 362.986C1774.46 363.369 1773.81 363.727 1773.14 364.068C1772.68 364.293 1772.23 364.526 1771.76 364.735C1770.99 365.076 1770.22 365.384 1769.44 365.668C1769.05 365.817 1768.66 365.984 1768.26 366.117C1767.1 366.509 1765.92 366.842 1764.72 367.1C1764.49 367.15 1764.26 367.175 1764.03 367.225C1763.03 367.417 1762.03 367.583 1761.03 367.691C1760.6 367.741 1760.15 367.758 1759.72 367.783C1758.91 367.841 1758.09 367.883 1757.27 367.875C1756.79 367.875 1756.31 367.875 1755.83 367.833C1755.03 367.833 1754.23 367.733 1753.42 367.641C1752.95 367.583 1752.47 367.525 1752 367.45C1751.14 367.317 1750.28 367.125 1749.42 366.917H1749.25C1746.14 378.672 1742.96 390.399 1739.72 402.098C1743.82 397.464 1748.66 393.893 1753.94 391.604C1759.22 389.315 1764.83 388.356 1770.43 388.786C1776.03 389.217 1781.5 391.028 1786.5 394.107C1791.49 397.187 1795.92 401.471 1799.5 406.695L1785.51 426.151L1804.64 416.398C1807.06 422.23 1808.49 428.58 1808.88 435.085C1809.26 441.59 1808.58 448.123 1806.88 454.311C1805.69 458.702 1804 462.866 1801.84 466.679C1797.2 474.943 1790.62 481.329 1782.95 485.01C1775.27 488.691 1766.86 489.497 1758.81 487.322C1750.75 485.148 1743.42 480.094 1737.77 472.816C1732.11 465.538 1728.39 456.372 1727.1 446.507C1726.75 447.69 1726.41 448.881 1726.08 450.063C1722.5 462.265 1718.05 477.448 1708.82 488.567C1702.56 496.063 1694.78 500.969 1687.32 505.108C1682.47 507.801 1677.54 510.3 1672.54 512.604C1667.01 516.824 1660.73 519.393 1654.21 520.1C1646.32 522.949 1638.32 525.336 1630.23 527.263L1625.18 528.437C1620.65 529.478 1616.01 530.553 1611.42 531.769C1612.11 531.994 1612.79 532.21 1613.43 532.477C1621.73 535.805 1628.94 542.244 1634.02 550.861C1639.09 559.478 1641.77 569.827 1641.67 580.409L1610.14 592.902L1638.91 597.766C1636.41 605.634 1632.3 612.605 1626.97 618.029C1621.63 623.453 1615.25 627.152 1608.41 628.782C1601.58 630.411 1594.51 629.918 1587.88 627.347C1581.24 624.776 1575.26 620.213 1570.47 614.082L1571.4 617.597C1572.02 619.921 1572.63 622.236 1573.23 624.526C1581.26 655.759 1578.4 680.529 1565.15 694.288L1557.7 683.761C1570.59 670.368 1566.11 643.491 1562.3 628.658C1561.71 626.403 1561.11 624.132 1560.5 621.845C1555.28 602.18 1549.35 579.901 1556.25 559.137C1566.65 527.846 1597.93 520.633 1623.08 514.836Z" fill="#0FA40C"/>
<path d="M1333.67 405.862L1329.34 402.606L1328.11 401.648C1337.33 399.733 1345.73 394.081 1351.94 385.621C1358.15 377.16 1361.8 366.395 1362.29 355.093C1362.77 343.792 1360.06 332.627 1354.61 323.434C1349.16 314.241 1341.28 307.567 1332.28 304.509L1332.49 325.056L1323.16 302.71H1323.05C1317.64 302.404 1312.24 303.39 1307.15 305.61C1302.06 307.831 1297.38 311.242 1293.38 315.651C1289.38 320.059 1286.14 325.378 1283.84 331.303C1281.54 337.228 1280.22 343.644 1279.97 350.184C1279.93 351.134 1279.97 352.075 1279.97 353.008C1276.72 348.535 1273.77 343.729 1271.83 338.466C1267.88 327.805 1267.8 315.736 1268.12 301.069C1268.74 271.994 1269.77 242.701 1271.13 213.5C1280.86 212.19 1289.9 206.72 1296.6 198.073C1303.31 189.427 1307.24 178.17 1307.71 166.326C1307.77 164.802 1307.75 163.294 1307.71 161.804C1307.71 161.429 1307.71 161.054 1307.66 160.688C1307.58 159.238 1307.46 157.797 1307.29 156.39C1307.29 156.157 1307.21 155.932 1307.18 155.699C1307.01 154.508 1306.8 153.325 1306.57 152.151C1306.48 151.717 1306.4 151.276 1306.29 150.843C1306.01 149.577 1305.69 148.344 1305.32 147.087C1305.2 146.67 1305.06 146.254 1304.93 145.871C1304.63 144.954 1304.31 144.063 1303.98 143.18C1303.8 142.714 1303.62 142.248 1303.44 141.79C1303.39 141.665 1303.35 141.548 1303.3 141.431C1298.95 131.023 1291.72 122.793 1282.87 118.175C1274.02 113.557 1264.11 112.845 1254.87 116.162L1255.15 142.897L1245.92 120.809C1238.34 126.059 1232.35 134.103 1228.81 143.768C1225.28 153.433 1224.39 164.211 1226.28 174.53H1226.23C1226.29 174.88 1226.39 175.221 1226.46 175.571C1226.59 176.237 1226.73 176.887 1226.88 177.537C1227.07 178.37 1227.28 179.202 1227.52 180.035C1227.69 180.652 1227.85 181.268 1228.05 181.876C1228.32 182.759 1228.64 183.617 1228.96 184.475C1229.15 184.974 1229.31 185.491 1229.51 185.982C1230.04 187.276 1230.6 188.534 1231.21 189.755C1231.43 190.188 1231.67 190.588 1231.9 191.013C1232.34 191.846 1232.79 192.678 1233.28 193.453C1233.58 193.944 1233.9 194.411 1234.21 194.894C1234.65 195.585 1235.12 196.268 1235.58 196.926C1235.93 197.393 1236.27 197.851 1236.63 198.309C1237.13 198.95 1237.66 199.575 1238.19 200.191C1238.54 200.599 1238.87 201.024 1239.27 201.407C1239.88 202.057 1240.51 202.673 1241.15 203.289C1241.48 203.589 1241.79 203.914 1242.12 204.214C1243.09 205.047 1244.1 205.88 1245.14 206.671C1245.34 206.821 1245.54 206.937 1245.74 207.079C1246.61 207.695 1247.5 208.278 1248.41 208.82C1248.79 209.053 1249.2 209.253 1249.6 209.469C1250.34 209.877 1251.09 210.302 1251.85 210.619C1252.3 210.827 1252.76 211.018 1253.23 211.21C1253.99 211.518 1254.76 211.801 1255.54 212.043C1256 212.198 1256.45 212.348 1256.91 212.493C1257.76 212.734 1258.62 212.934 1259.48 213.117H1259.65C1259.08 225.444 1258.58 237.771 1258.13 250.097C1255.68 243.991 1252.22 238.557 1247.97 234.127C1243.72 229.698 1238.76 226.367 1233.41 224.339C1228.05 222.311 1222.41 221.629 1216.83 222.334C1211.25 223.04 1205.85 225.119 1200.96 228.442L1208.24 252.596L1193.26 235.189C1185.23 244.074 1180.44 256.455 1179.95 269.612C1179.76 274.226 1180.11 278.85 1180.99 283.346C1182.87 293.073 1187.13 301.891 1193.2 308.656C1199.27 315.421 1206.89 319.821 1215.05 321.285C1223.22 322.748 1231.56 321.208 1238.99 316.863C1246.43 312.519 1252.61 305.571 1256.74 296.922C1256.74 298.179 1256.67 299.42 1256.64 300.686C1256.37 313.629 1256.02 329.737 1261.36 344.121C1264.97 353.866 1270.79 361.778 1276.5 368.874C1280.24 373.494 1284.11 377.964 1288.09 382.283C1291.99 388.639 1297.09 393.778 1302.96 397.275C1309.5 403.364 1316.25 409.086 1323.24 414.366L1327.6 417.648C1331.52 420.588 1335.54 423.603 1339.48 426.751C1338.79 426.668 1338.11 426.576 1337.42 426.534C1328.68 426.042 1320.05 428.924 1312.76 434.763C1305.47 440.603 1299.9 449.096 1296.86 459.017L1322.59 484.361L1294.28 476.416C1294.29 484.844 1296.07 493.132 1299.45 500.504C1302.82 507.876 1307.69 514.092 1313.59 518.572C1319.49 523.051 1326.23 525.649 1333.19 526.122C1340.14 526.594 1347.08 524.927 1353.36 521.274L1351.44 524.156C1350.18 526.063 1348.92 527.954 1347.69 529.836C1330.93 555.506 1326.27 579.884 1334.57 598.466L1344.66 591.869C1336.58 573.779 1348.73 550.633 1356.69 538.432C1357.89 536.583 1359.13 534.725 1360.38 532.86C1371.07 516.769 1383.21 498.528 1382.91 476.157C1382.46 442.459 1355.41 422.162 1333.67 405.862Z" fill="#0FA40C"/>
<path d="M1477.77 719C1643.87 719 1778.53 700.355 1778.53 677.356C1778.53 654.357 1643.87 635.712 1477.77 635.712C1311.66 635.712 1177 654.357 1177 677.356C1177 700.355 1311.66 719 1477.77 719Z" fill="#F2F2F2"/>
<path d="M1663.07 92H1295.21C1287.68 92 1281.58 99.3833 1281.58 108.491V651.312C1281.58 660.42 1287.68 667.803 1295.21 667.803H1663.07C1670.6 667.803 1676.7 660.42 1676.7 651.312V108.491C1676.7 99.3833 1670.6 92 1663.07 92Z" fill="#3F3D56"/>
<path d="M1656.5 150.085H1299.17V609.718H1656.5V150.085Z" fill="#302F45"/>
<path d="M1479.14 656.859C1486.82 656.859 1493.05 649.323 1493.05 640.026C1493.05 630.73 1486.82 623.194 1479.14 623.194C1471.46 623.194 1465.23 630.73 1465.23 640.026C1465.23 649.323 1471.46 656.859 1479.14 656.859Z" fill="white"/>
<path d="M1479.14 133.677C1477.83 133.677 1476.56 133.208 1475.47 132.328C1474.38 131.449 1473.53 130.199 1473.03 128.736C1472.53 127.274 1472.4 125.664 1472.66 124.112C1472.91 122.559 1473.54 121.133 1474.47 120.014C1475.39 118.894 1476.57 118.132 1477.85 117.823C1479.13 117.514 1480.46 117.673 1481.67 118.279C1482.88 118.884 1483.91 119.91 1484.64 121.227C1485.37 122.543 1485.76 124.09 1485.76 125.673C1485.75 127.795 1485.06 129.83 1483.82 131.331C1482.58 132.831 1480.9 133.675 1479.14 133.677V133.677Z" fill="white"/>
<path d="M1479.14 118.094C1480.38 118.092 1481.6 118.536 1482.63 119.369C1483.66 120.202 1484.46 121.387 1484.94 122.774C1485.42 124.161 1485.54 125.687 1485.3 127.16C1485.06 128.632 1484.46 129.985 1483.58 131.047C1482.71 132.108 1481.59 132.831 1480.37 133.124C1479.15 133.416 1477.89 133.265 1476.75 132.69C1475.6 132.115 1474.62 131.141 1473.93 129.892C1473.24 128.643 1472.88 127.175 1472.88 125.673C1472.88 123.664 1473.54 121.737 1474.72 120.316C1475.89 118.896 1477.48 118.096 1479.14 118.094V118.094ZM1479.14 117.261C1477.77 117.266 1476.42 117.765 1475.28 118.694C1474.14 119.624 1473.25 120.942 1472.73 122.482C1472.2 124.023 1472.07 125.716 1472.34 127.349C1472.61 128.981 1473.28 130.479 1474.26 131.653C1475.23 132.827 1476.47 133.625 1477.83 133.945C1479.18 134.265 1480.57 134.093 1481.84 133.451C1483.11 132.81 1484.2 131.726 1484.96 130.339C1485.72 128.951 1486.13 127.322 1486.12 125.657C1486.12 124.551 1485.94 123.457 1485.59 122.436C1485.24 121.414 1484.73 120.487 1484.08 119.705C1483.44 118.924 1482.67 118.305 1481.82 117.883C1480.98 117.46 1480.08 117.243 1479.16 117.245L1479.14 117.261Z" fill="white"/>
<path d="M1340.65 279.398H1319.31V283.562H1340.65V279.398Z" fill="#3F3D56"/>
<path d="M1340.65 309.382H1319.31V313.546H1340.65V309.382Z" fill="#3F3D56"/>
<path d="M1340.65 339.365H1319.31V343.53H1340.65V339.365Z" fill="#3F3D56"/>
<path d="M1340.65 369.349H1319.31V373.513H1340.65V369.349Z" fill="#3F3D56"/>
<path d="M1340.65 399.333H1319.31V403.497H1340.65V399.333Z" fill="#3F3D56"/>
<path opacity="0.3" d="M1449.04 372.914H1433.22V464.339H1449.04V372.914Z" fill="#60D8D2"/>
<path d="M1340.65 429.316H1319.31V433.481H1340.65V429.316Z" fill="#3F3D56"/>
<path d="M1340.65 459.3H1319.31V463.464H1340.65V459.3Z" fill="#3F3D56"/>
<path d="M1347.53 460.966V281.897" stroke="#3F3D56" stroke-miterlimit="10"/>
<path d="M1347.18 281.48H1635.9" stroke="#3F3D56" stroke-miterlimit="10"/>
<path d="M1347.87 311.464H1635.9" stroke="#3F3D56" stroke-miterlimit="10"/>
<path d="M1347.87 341.447H1635.9" stroke="#3F3D56" stroke-miterlimit="10"/>
<path d="M1347.87 371.431H1635.9" stroke="#3F3D56" stroke-miterlimit="10"/>
<path d="M1347.87 401.415H1635.9" stroke="#3F3D56" stroke-miterlimit="10"/>
<path d="M1347.87 431.398H1635.9" stroke="#3F3D56" stroke-miterlimit="10"/>
<path d="M1347.18 461.382H1635.9" stroke="#3F3D56" stroke-miterlimit="10"/>
<path d="M1382.97 431.815H1367.14V460.966H1382.97V431.815Z" fill="#60D8D2"/>
<path d="M1419.11 398.833H1403.28V460.966H1419.11V398.833Z" fill="#60D8D2"/>
<path d="M1491.37 341.139H1475.54V460.966H1491.37V341.139Z" fill="#60D8D2"/>
<path d="M1527.51 311.88H1511.68V460.966H1527.51V311.88Z" fill="#60D8D2"/>
<path d="M1563.64 341.139H1547.81V460.966H1563.64V341.139Z" fill="#60D8D2"/>
<path d="M1599.77 281.738H1583.94V460.966H1599.77V281.738Z" fill="#60D8D2"/>
<path d="M1471.7 367.425C1464.41 365.135 1456.88 362.819 1449.43 364.202C1448.52 364.274 1447.66 364.697 1446.96 365.409C1446.03 366.559 1446.14 368.533 1446.89 369.857C1447.72 371.125 1448.86 372.052 1450.14 372.514C1453.62 374.046 1457.41 374.18 1461.11 374.255C1464.81 374.33 1468.36 374.429 1471.86 373.38C1472.67 373.211 1473.42 372.776 1474.04 372.122C1476.02 369.69 1473.39 367.958 1471.7 367.425Z" fill="#A0616A"/>
<path d="M1526.65 388.947C1524.21 389.065 1521.77 388.878 1519.36 388.389C1517.22 387.853 1515.1 387.147 1513.03 386.273L1505.54 383.333C1501.48 381.856 1497.5 380.061 1493.63 377.961C1487.02 374.171 1480.99 368.533 1473.81 366.784C1472.52 366.467 1470.88 366.459 1470.22 367.833C1469.95 368.493 1469.84 369.226 1469.89 369.957L1469.84 376.353C1469.81 376.777 1469.87 377.205 1470.01 377.594C1470.2 377.946 1470.46 378.232 1470.77 378.427C1477.58 383.716 1485.28 387.364 1491.46 393.677C1493.33 395.585 1495.05 397.725 1497.02 399.507C1499.59 401.817 1502.55 403.438 1505.68 404.263C1510.07 405.421 1514.82 405.029 1518.79 407.545C1520.61 408.686 1522.23 410.427 1524.25 410.876C1525.98 411.243 1527.73 410.593 1529.39 409.952C1532.14 408.894 1534.97 407.736 1536.84 405.121C1539.22 401.79 1539.38 396.976 1539.43 392.57C1539.43 391.32 1540.11 386.181 1539.47 385.224C1538.56 383.908 1537.13 385.857 1536.23 386.465C1533.39 388.355 1529.87 388.947 1526.65 388.947Z" fill="#E6E6F0"/>
<path d="M1549.22 356.248C1549.22 356.248 1553.81 379.943 1557.18 383.649C1560.54 387.356 1533.31 395.51 1533.31 395.51C1533.31 395.51 1539.12 369.574 1536.36 365.135C1533.61 360.695 1549.22 356.248 1549.22 356.248Z" fill="#A0616A"/>
<path opacity="0.1" d="M1549.22 356.248C1549.22 356.248 1553.81 379.943 1557.18 383.649C1560.54 387.356 1533.31 395.51 1533.31 395.51C1533.31 395.51 1539.12 369.574 1536.36 365.135C1533.61 360.695 1549.22 356.248 1549.22 356.248Z" fill="black"/>
<path d="M1505.11 665.787C1503.62 666.062 1502.09 665.787 1500.59 666.004C1498.48 666.299 1496.53 667.499 1495.09 669.385C1494.84 669.65 1494.64 669.974 1494.51 670.337C1494.37 670.7 1494.3 671.094 1494.3 671.492C1494.38 672.048 1494.6 672.557 1494.94 672.95C1496.31 674.799 1498.32 675.749 1500.32 676.282C1503.3 676.947 1506.34 677.226 1509.37 677.114C1516.91 677.164 1524.46 677.206 1532.01 677.239C1532.55 673.96 1532.47 670.573 1531.77 667.336C1531.63 666.443 1531.3 665.605 1530.83 664.896C1530.33 664.316 1529.75 663.858 1529.11 663.547L1524.46 660.857C1520.76 658.716 1517.84 657.125 1514.13 659.766C1511.13 661.831 1508.61 665.138 1505.11 665.787Z" fill="#3C354C"/>
<path opacity="0.1" d="M1505.11 665.787C1503.62 666.062 1502.09 665.787 1500.59 666.004C1498.48 666.299 1496.53 667.499 1495.09 669.385C1494.84 669.65 1494.64 669.974 1494.51 670.337C1494.37 670.7 1494.3 671.094 1494.3 671.492C1494.38 672.048 1494.6 672.557 1494.94 672.95C1496.31 674.799 1498.32 675.749 1500.32 676.282C1503.3 676.947 1506.34 677.226 1509.37 677.114C1516.91 677.164 1524.46 677.206 1532.01 677.239C1532.55 673.96 1532.47 670.573 1531.77 667.336C1531.63 666.443 1531.3 665.605 1530.83 664.896C1530.33 664.316 1529.75 663.858 1529.11 663.547L1524.46 660.857C1520.76 658.716 1517.84 657.125 1514.13 659.766C1511.13 661.831 1508.61 665.138 1505.11 665.787Z" fill="black"/>
<path d="M1553.3 688.575C1553.4 689.576 1553.33 690.591 1553.09 691.557C1552.47 693.522 1550.62 694.422 1548.96 694.996C1541.39 697.57 1533.42 697.778 1525.56 697.97C1519.66 698.111 1513.59 698.22 1508.08 695.688C1506.94 695.244 1505.9 694.492 1505.04 693.489C1504.61 692.987 1504.3 692.358 1504.13 691.664C1503.96 690.97 1503.95 690.236 1504.08 689.533C1504.52 687.767 1506.05 686.818 1507.44 686.06L1514.97 681.953L1529.49 674.041C1531.3 673.058 1533.19 672.059 1535.17 672.126C1537.57 672.217 1539.72 673.866 1541.86 675.174C1543.41 676.119 1545.02 676.911 1546.68 677.539C1548.15 678.089 1550.2 678.156 1551.5 679.105C1553.84 680.821 1553.18 685.76 1553.3 688.575Z" fill="#3C354C"/>
<path d="M1507.98 514.428C1504.17 527.438 1500.35 540.539 1498.49 554.156C1497.8 559.029 1497.42 563.943 1496.68 568.799C1495.99 573.379 1495 578.043 1495.69 582.624C1496.13 585.614 1497.27 588.379 1498.12 591.228C1499.26 595.018 1499.91 598.999 1500.98 602.813C1502.65 608.727 1505.31 614.157 1507 620.054C1508.65 625.776 1509.38 631.914 1511.67 637.295C1513.05 640.493 1514.92 643.383 1515.8 646.806C1516.42 649.345 1516.47 652.041 1515.93 654.608C1515.39 657.176 1514.29 659.522 1512.75 661.398C1513.16 663.622 1515.3 664.73 1517.06 665.562L1523.49 668.436C1525.94 669.527 1528.7 670.618 1531.06 669.352C1534.55 667.511 1535.19 661.948 1535.09 657.359C1534.75 646.181 1532.53 635.221 1530.32 624.36C1528.26 614.365 1526.25 604.371 1523.82 594.485C1522.8 590.403 1521.75 586.339 1520.93 582.183C1517.98 566.683 1518.97 550.466 1523.77 535.658C1526.52 527.329 1524.07 517.068 1524.38 508.065L1515.14 506.008C1513.33 505.608 1511.12 505.366 1509.97 507.115C1508.82 508.864 1508.63 512.204 1507.98 514.428Z" fill="#575A89"/>
<path opacity="0.1" d="M1507.98 514.428C1504.17 527.438 1500.35 540.539 1498.49 554.156C1497.8 559.029 1497.42 563.943 1496.68 568.799C1495.99 573.379 1495 578.043 1495.69 582.624C1496.13 585.614 1497.27 588.379 1498.12 591.228C1499.26 595.018 1499.91 598.999 1500.98 602.813C1502.65 608.727 1505.31 614.157 1507 620.054C1508.65 625.776 1509.38 631.914 1511.67 637.295C1513.05 640.493 1514.92 643.383 1515.8 646.806C1516.42 649.345 1516.47 652.041 1515.93 654.608C1515.39 657.176 1514.29 659.522 1512.75 661.398C1513.16 663.622 1515.3 664.73 1517.06 665.562L1523.49 668.436C1525.94 669.527 1528.7 670.618 1531.06 669.352C1534.55 667.511 1535.19 661.948 1535.09 657.359C1534.75 646.181 1532.53 635.221 1530.32 624.36C1528.26 614.365 1526.25 604.371 1523.82 594.485C1522.8 590.403 1521.75 586.339 1520.93 582.183C1517.98 566.683 1518.97 550.466 1523.77 535.658C1526.52 527.329 1524.07 517.068 1524.38 508.065L1515.14 506.008C1513.33 505.608 1511.12 505.366 1509.97 507.115C1508.82 508.864 1508.63 512.204 1507.98 514.428Z" fill="black"/>
<path d="M1551.72 508.456C1551.48 512.463 1551.21 516.585 1549.71 520.117C1548.79 522.299 1547.46 524.181 1546.43 526.28C1543.67 531.935 1543.17 538.773 1543.06 545.378C1542.95 552.191 1543.15 559.004 1543.36 565.808C1543.36 567.91 1543.54 570.005 1543.89 572.063C1544.23 573.787 1544.81 575.437 1545.14 577.161C1545.93 581.325 1545.2 585.731 1545.68 589.979C1546.04 593.21 1547.05 596.259 1547.86 599.382C1549.04 604.175 1549.6 609.163 1549.52 614.165C1549.27 627.708 1552.8 640.609 1552.88 654.144C1552.88 658.808 1552.74 663.48 1553.07 668.136C1553.41 673.2 1554.33 678.181 1554.78 683.236C1554.88 684.402 1554.9 685.735 1554.15 686.509C1553.6 686.955 1552.94 687.161 1552.28 687.092C1549.89 687.272 1547.5 686.991 1545.19 686.26C1543.12 685.502 1541.29 684.169 1539.29 683.294C1535.55 681.629 1530.92 681.279 1528.78 677.231C1528.57 676.889 1528.45 676.486 1528.41 676.065C1528.41 674.916 1529.43 674.208 1529.91 673.208C1530.18 672.556 1530.32 671.832 1530.31 671.101C1530.49 665.771 1528.52 660.74 1527.2 655.651C1526.03 650.685 1525.17 645.621 1524.61 640.501C1523.24 629.932 1521.86 619.138 1523.3 608.577C1523.65 605.978 1524.1 603.038 1522.78 600.948C1522.18 600.156 1521.52 599.434 1520.8 598.791C1520.01 597.928 1519.38 596.877 1518.94 595.702C1518.5 594.528 1518.27 593.257 1518.26 591.969C1518.26 583.64 1515.12 575.312 1514.82 566.983C1514.64 562.169 1514.88 557.346 1514.7 552.532C1514.2 539.823 1510.77 527.596 1507.65 515.444C1507.12 513.703 1506.82 511.875 1506.75 510.022C1506.71 509.087 1506.84 508.153 1507.14 507.288C1507.44 506.424 1507.89 505.651 1508.47 505.025C1513.71 499.936 1521.48 498.229 1527.29 502.326C1528.45 503.159 1529.52 504.117 1530.73 504.825C1537.05 508.831 1545.31 504.617 1551.72 508.456Z" fill="#575A89"/>
<path d="M1540.96 377.719C1549.24 377.719 1555.95 369.598 1555.95 359.579C1555.95 349.561 1549.24 341.439 1540.96 341.439C1532.68 341.439 1525.97 349.561 1525.97 359.579C1525.97 369.598 1532.68 377.719 1540.96 377.719Z" fill="#A0616A"/>
<path d="M1507.52 509.339C1508.15 510.107 1508.91 510.7 1509.74 511.08L1514.31 513.579C1515.03 514.057 1515.81 514.405 1516.61 514.611C1517.63 514.726 1518.66 514.636 1519.66 514.345C1530.19 512.048 1541 512.294 1551.46 515.069C1554.82 508.964 1555.12 501.077 1554.21 493.831C1553.72 489.983 1552.93 486.01 1553.81 482.262C1554.18 480.655 1554.86 479.172 1555.24 477.565C1556.27 473.184 1555.02 468.462 1555.59 463.956C1556.28 458.434 1559.61 453.961 1561.43 448.847C1562.45 445.679 1563.2 442.391 1563.65 439.036C1564.33 434.944 1565.02 430.86 1565.72 426.784C1566.47 422.278 1567.22 417.723 1567.09 413.133C1566.94 406.129 1564.82 399.441 1562.72 392.903C1561.84 390.154 1560.82 387.189 1558.7 385.723C1556.1 383.933 1552.83 385.015 1550.07 386.365C1546.48 388.105 1542.94 390.229 1539.11 391.112C1537.46 391.495 1535.19 390.804 1533.7 391.337C1532.42 391.795 1531.55 393.885 1530.79 395.16C1526.55 402.222 1523.48 410.209 1521.75 418.68C1520.01 427.242 1519.62 436.346 1516.4 444.25C1515.66 445.997 1514.84 447.694 1513.95 449.33C1512.09 452.812 1510.08 456.185 1508.82 460.024C1506.88 465.955 1506.89 472.459 1507.02 478.881C1507.02 479.939 1507.06 480.98 1507.08 482.029C1507.22 489.286 1507.08 496.532 1506.68 503.767C1506.55 505.7 1506.48 507.857 1507.52 509.339Z" fill="#E6E6F0"/>
<path d="M1467.02 464.455C1459.49 464.772 1451.72 465.047 1444.7 461.732C1443.83 461.421 1443.06 460.778 1442.51 459.9C1441.82 458.534 1442.27 456.635 1443.24 455.544C1444.28 454.528 1445.56 453.924 1446.89 453.811C1450.56 453.228 1454.28 454.119 1457.9 455.011C1461.53 455.902 1465.01 456.751 1468.23 458.692C1468.98 459.075 1469.64 459.7 1470.13 460.499C1471.67 463.406 1468.76 464.38 1467.02 464.455Z" fill="#A0616A"/>
<path opacity="0.1" d="M1507 478.864C1508.66 478.864 1510.32 478.764 1511.97 478.648C1513.92 478.588 1515.86 478.236 1517.74 477.598C1520.56 476.507 1522.98 474.267 1525.28 472.026C1532.5 464.951 1539.2 457.132 1545.31 448.656C1547.33 445.849 1549.32 442.9 1550.4 439.411C1551.73 435.155 1551.59 430.457 1551.31 425.918C1551.13 422.945 1550.89 419.88 1549.73 417.239C1549.26 416.095 1548.59 415.094 1547.75 414.316C1546.92 413.538 1545.94 413.002 1544.91 412.75L1547.51 412.867C1545.01 410.993 1541.85 411.251 1538.92 411.568C1536.91 411.784 1534.84 412.026 1533.07 413.233C1530.86 414.683 1529.43 417.398 1528.25 420.03C1524.32 428.7 1521.81 438.411 1516.7 446.132C1516.03 447.203 1515.25 448.166 1514.37 448.997C1514.24 449.122 1514.09 449.239 1513.95 449.355C1512.09 452.837 1510.08 456.21 1508.82 460.049C1506.86 465.938 1506.87 472.443 1507 478.864Z" fill="black"/>
<path d="M1543.81 409.36C1546.27 409.136 1548.55 411.268 1549.7 413.908C1550.85 416.548 1551.08 419.605 1551.28 422.587C1551.56 427.126 1551.7 431.823 1550.38 436.079C1549.3 439.569 1547.31 442.517 1545.28 445.324C1539.18 453.797 1532.49 461.616 1525.28 468.695C1522.98 470.952 1520.56 473.176 1517.74 474.267C1515.86 474.904 1513.92 475.257 1511.97 475.316C1504.59 475.841 1497.03 475.608 1490.09 472.568C1484.58 470.177 1479.51 466.063 1473.7 465.63C1472.28 465.521 1470.77 465.63 1469.51 464.797C1467.18 463.289 1466.75 459.475 1466.96 456.293C1466.91 455.955 1466.92 455.607 1466.99 455.274C1467.06 454.941 1467.2 454.632 1467.38 454.371C1467.57 454.11 1467.8 453.903 1468.06 453.766C1468.32 453.628 1468.6 453.564 1468.89 453.578C1480.49 451.837 1492.6 455.402 1503.79 451.263C1506.33 450.248 1508.81 449.043 1511.23 447.656C1512.33 447.111 1513.38 446.424 1514.35 445.607C1515.23 444.778 1516.01 443.815 1516.67 442.742C1521.78 435.021 1524.3 425.31 1528.23 416.64C1529.43 413.975 1530.87 411.293 1533.05 409.843C1534.82 408.677 1536.89 408.436 1538.9 408.178C1541.83 407.861 1544.99 407.603 1547.49 409.477" fill="#E6E6F0"/>
<path d="M1552.12 363.36C1551.43 364.385 1551 365.634 1550.24 366.567C1549.48 367.5 1548.17 368.066 1547.31 367.317C1545.96 366.192 1546.67 363.435 1545.63 361.92C1545.04 361.087 1544.04 360.812 1543.33 360.112C1541.64 358.446 1542.09 354.982 1540.58 353.041C1539.06 351.1 1536.69 351.534 1534.73 352.391C1532.78 353.249 1530.77 354.499 1528.74 353.999C1525.85 353.283 1524.35 349.468 1523.53 346.045C1522.7 342.622 1522.15 338.865 1523.53 335.767C1524.66 333.194 1526.97 331.603 1529.25 330.77C1531.52 329.937 1534 329.787 1536.38 329.271C1539.54 328.579 1542.57 327.263 1545.8 326.88C1549.03 326.497 1552.5 327.214 1554.75 329.979C1558.06 334.051 1557.5 340.698 1559.15 346.053C1560.1 349.093 1561.8 351.717 1562.81 354.724C1564.6 360.054 1563.71 367.008 1559.78 370.248C1559.18 370.838 1558.41 371.135 1557.63 371.081C1556 370.798 1555.4 368.299 1555.49 366.309C1555.72 362.686 1555.01 358.946 1552.12 363.36Z" fill="#3F3D56"/>
<path d="M1455.24 369.582H1439.41V461.007H1455.24V369.582Z" fill="#60D8D2"/>
<path d="M1235.44 669.377C1233.37 664.788 1235.71 659.166 1238.39 655.068C1241.06 650.97 1244.31 646.739 1244.24 641.509C1244.15 634.013 1237.57 629.582 1232.31 625.609C1228.42 622.663 1224.83 619.165 1221.61 615.19C1220.26 613.662 1219.15 611.857 1218.32 609.859C1217.24 606.928 1217.26 603.596 1217.33 600.381C1217.56 589.687 1217.99 579.004 1218.64 568.332" stroke="#3F3D56" stroke-width="4" stroke-miterlimit="10"/>
<path d="M1208.66 567.749C1208.73 565.791 1209.21 563.887 1210.05 562.213C1210.9 560.539 1212.07 559.149 1213.48 558.171L1215.64 563.343L1215.58 557.08C1217.53 556.376 1219.63 556.443 1221.55 557.272C1223.47 558.1 1225.13 559.647 1226.28 561.689C1227.43 563.731 1228.02 566.163 1227.95 568.633C1227.88 571.103 1227.17 573.484 1225.92 575.433C1224.66 577.381 1222.92 578.795 1220.96 579.472C1218.99 580.149 1216.9 580.053 1214.99 579.198C1213.07 578.343 1211.43 576.773 1210.3 574.716C1209.17 572.658 1208.6 570.218 1208.69 567.749H1208.66Z" fill="#57B894"/>
<path d="M1225.89 646.864C1226.9 649.241 1228.56 651.124 1230.58 652.197C1232.6 653.271 1234.87 653.47 1237 652.761C1239.13 652.053 1241 650.479 1242.28 648.305C1243.57 646.13 1244.2 643.487 1244.07 640.818C1243.93 638.148 1243.05 635.615 1241.56 633.643C1240.06 631.671 1238.06 630.379 1235.87 629.985C1233.68 629.591 1231.45 630.117 1229.55 631.477C1227.65 632.837 1226.19 634.946 1225.42 637.453L1231.45 643.391L1224.81 641.534C1224.81 643.389 1225.18 645.217 1225.89 646.864V646.864Z" fill="#57B894"/>
<path d="M1230.65 624.168C1231.92 624.244 1233.19 624.016 1234.38 623.497C1235.58 622.978 1236.68 622.178 1237.61 621.143C1238.55 620.108 1239.31 618.859 1239.85 617.467C1240.39 616.075 1240.7 614.568 1240.75 613.033C1240.83 611.204 1240.54 609.379 1239.92 607.711C1239.34 606.148 1238.49 604.758 1237.42 603.639C1236.35 602.519 1235.09 601.697 1233.73 601.231L1233.77 606.053L1231.59 600.814C1230.32 600.743 1229.06 600.973 1227.86 601.493C1226.67 602.013 1225.58 602.812 1224.64 603.844C1223.7 604.876 1222.94 606.121 1222.4 607.508C1221.87 608.896 1221.56 610.398 1221.5 611.929C1221.44 613.46 1221.63 614.991 1222.06 616.433C1222.49 617.875 1223.15 619.201 1224 620.334C1224.86 621.467 1225.88 622.386 1227.03 623.039C1228.18 623.691 1229.42 624.063 1230.68 624.135L1230.65 624.168Z" fill="#57B894"/>
<path d="M1207.2 605.287C1208.47 605.363 1209.74 605.135 1210.93 604.616C1212.13 604.097 1213.23 603.297 1214.17 602.262C1215.1 601.227 1215.87 599.977 1216.4 598.586C1216.94 597.194 1217.25 595.687 1217.3 594.151C1217.37 592.617 1217.18 591.083 1216.75 589.637C1216.32 588.191 1215.66 586.861 1214.81 585.725C1213.95 584.589 1212.92 583.668 1211.77 583.016C1210.62 582.364 1209.38 581.993 1208.11 581.925C1206.3 581.825 1204.51 582.339 1202.93 583.407L1204.64 589.071L1201.13 584.99C1199.25 587.073 1198.12 589.975 1198.01 593.06C1197.96 594.141 1198.04 595.223 1198.25 596.275C1198.73 598.753 1199.86 600.974 1201.48 602.601C1203.09 604.228 1205.1 605.171 1207.2 605.287V605.287Z" fill="#57B894"/>
<path opacity="0.1" d="M1209.95 570.864C1212.18 571.156 1214.35 571.997 1216.59 572.163C1218.83 572.33 1221.28 571.68 1222.7 569.581C1223.46 568.449 1223.84 567.008 1224.49 565.775C1225.1 564.623 1225.93 563.671 1226.92 563.002C1227.5 564.476 1227.82 566.082 1227.86 567.716C1227.9 569.349 1227.65 570.974 1227.13 572.485C1226.62 573.995 1225.85 575.358 1224.87 576.484C1223.89 577.61 1222.72 578.475 1221.45 579.021C1220.18 579.568 1218.83 579.786 1217.48 579.659C1216.13 579.532 1214.82 579.064 1213.64 578.286C1212.45 577.507 1211.41 576.435 1210.59 575.139C1209.76 573.844 1209.18 572.353 1208.86 570.764C1209.25 570.781 1209.61 570.814 1209.95 570.864Z" fill="black"/>
<path opacity="0.1" d="M1207.2 605.287C1208.47 605.363 1209.74 605.135 1210.93 604.616C1212.13 604.097 1213.23 603.297 1214.17 602.262C1215.1 601.227 1215.87 599.978 1216.4 598.586C1216.94 597.194 1217.25 595.687 1217.3 594.151C1217.38 592.242 1217.07 590.339 1216.39 588.613C1215.62 589.239 1214.96 590.036 1214.45 590.961C1213.76 592.219 1213.35 593.668 1212.53 594.826C1211.03 596.966 1208.46 597.666 1206.13 597.533C1203.79 597.4 1201.55 596.608 1199.24 596.35C1198.93 596.35 1198.6 596.292 1198.27 596.275C1198.75 598.749 1199.88 600.967 1201.49 602.594C1203.1 604.22 1205.1 605.166 1207.2 605.287V605.287Z" fill="black"/>
<path opacity="0.1" d="M1230.65 624.168C1231.92 624.244 1233.19 624.016 1234.38 623.497C1235.58 622.978 1236.68 622.178 1237.61 621.143C1238.55 620.108 1239.31 618.859 1239.85 617.467C1240.39 616.075 1240.7 614.568 1240.75 613.033C1240.83 611.204 1240.54 609.379 1239.92 607.711C1239.12 608.345 1238.42 609.149 1237.86 610.084C1237.1 611.367 1236.64 612.841 1235.79 614.024C1234.16 616.223 1231.42 616.997 1228.95 616.922C1226.48 616.847 1224.26 616.148 1221.87 615.931C1222.46 618.232 1223.61 620.259 1225.18 621.734C1226.75 623.208 1228.66 624.059 1230.65 624.168V624.168Z" fill="black"/>
<path opacity="0.1" d="M1225.89 646.864C1226.4 648.263 1227.14 649.525 1228.06 650.578C1228.98 651.631 1230.07 652.454 1231.25 653C1232.43 653.547 1233.69 653.806 1234.96 653.762C1236.23 653.719 1237.47 653.375 1238.63 652.749C1239.79 652.122 1240.83 651.227 1241.7 650.113C1242.57 648.999 1243.25 647.689 1243.7 646.257C1244.15 644.825 1244.37 643.299 1244.33 641.767C1244.29 640.235 1244.01 638.727 1243.49 637.328C1242.7 637.96 1241.98 638.729 1241.37 639.61C1240.46 640.967 1239.85 642.5 1238.78 643.774C1236.81 646.123 1233.62 647.106 1230.79 647.181C1229.15 647.189 1227.51 647.083 1225.89 646.864V646.864Z" fill="black"/>
<path d="M1250 664.097C1250 664.097 1242.38 663.813 1240.09 661.831C1237.79 659.849 1228.38 657.483 1227.79 660.665C1227.19 663.847 1216.33 676.49 1224.94 676.54C1233.55 676.59 1244.94 674.916 1247.23 673.208C1249.52 671.501 1250 664.097 1250 664.097Z" fill="#656380"/>
<path opacity="0.2" d="M1224.79 675.432C1233.39 675.515 1244.79 673.766 1247.08 672.101C1248.82 670.81 1249.52 666.187 1249.75 664.055H1250C1250 664.055 1249.52 671.493 1247.25 673.217C1244.98 674.941 1233.57 676.615 1224.96 676.548C1222.47 676.548 1221.61 675.457 1221.66 673.866C1221.98 674.816 1222.93 675.415 1224.79 675.432Z" fill="black"/>
</g>
<defs>
<clipPath id="clip0">
<rect width="1920" height="840" fill="white"/>
</clipPath>
</defs>
</svg>
