<svg width="200" height="200" viewBox="0 0 200 200" fill="none" xmlns="http://www.w3.org/2000/svg">
<g clip-path="url(#clip0)">
<path d="M95 50C92.238 50 90 52.238 90 55C90 57.7621 92.238 60 95 60C97.762 60 100 57.7621 100 55C100 52.238 97.762 50 95 50Z" fill="#30E9BC"/>
<path d="M125 50C122.238 50 120 52.238 120 55C120 57.7621 122.238 60 125 60C127.762 60 130 57.7621 130 55C130 52.238 127.762 50 125 50Z" fill="#30E9BC"/>
<path d="M80 146.667H86.6667V153.333H80V146.667Z" fill="#30E9BC"/>
<path d="M133.333 146.667H140V153.333H133.333V146.667Z" fill="#30E9BC"/>
<path d="M80 190C80 190.884 80.3516 191.732 80.9766 192.357L87.6432 199.023C88.2682 199.648 89.1162 200 90 200H130C130.884 200 131.732 199.648 132.357 199.023L139.023 192.357C139.648 191.732 140 190.884 140 190V163.333C140 161.493 138.507 160 136.667 160H83.3333C81.4925 160 80 161.493 80 163.333V190ZM86.6667 166.667H133.333V188.62L128.62 193.333H91.3802L86.6667 188.62V166.667Z" fill="#30E9BC"/>
<path d="M30.0001 150H26.6667C24.8259 150 23.3334 151.493 23.3334 153.333V186.667C23.3334 188.508 24.8259 190 26.6667 190H30.0001V200H36.6667V190H43.3334V200H50.0001V199.771C56.4503 198.952 62.378 195.801 66.6667 190.913V200H73.3334V140H146.667V200H153.333V176.667H170V200H176.667V176.667H180C181.841 176.667 183.333 175.174 183.333 173.333V160C183.333 158.159 181.841 156.667 180 156.667H176.667V126.667C176.65 111.947 164.72 100.016 150 100H133.333V97.0736C138.887 91.6244 142.362 84.4059 143.158 76.6667H143.333C149.227 76.6455 154.406 72.7507 156.06 67.0931C162.093 62.9704 164.736 55.3988 162.581 48.4164C160.425 41.4356 153.973 36.6716 146.667 36.6667H143.333V21.5967C143.333 12.596 140.601 6.39324 134.971 2.63998C132.388 0.914722 129.352 -0.00324658 126.247 8.62751e-06H123.753C120.648 -0.00324658 117.612 0.914722 115.029 2.63998C111.986 4.67612 108.014 4.67612 104.971 2.63998C102.388 0.914722 99.3523 -0.00324658 96.2468 8.62751e-06H93.7533C90.6479 -0.00324658 87.6124 0.914722 85.0294 2.63998C79.3995 6.39324 76.6667 12.5928 76.6667 21.5967V36.6667H73.3334C69.7152 36.6797 66.2012 37.8809 63.3334 40.0863V19.4206C63.3187 14.2643 65.3679 9.31642 69.0235 5.68035L64.31 0.976571C59.3995 5.85938 56.6472 12.5049 56.6667 19.4303V46.6667C56.6488 50.8887 53.9812 54.6452 50.0001 56.0531V19.4303C49.9854 14.2741 52.0346 9.32618 55.6902 5.69011L50.9766 0.976571C46.0661 5.85938 43.3139 12.5049 43.3334 19.4303V56.6667H36.6667V19.4303C36.6521 14.2741 38.7012 9.32618 42.3568 5.69011L37.6433 0.976571C32.7328 5.85938 29.9805 12.5049 30.0001 19.4303V56.0531C26.0189 54.6452 23.3513 50.8887 23.3334 46.6667V19.4303C23.3187 14.2741 25.3679 9.32618 29.0235 5.69011L24.31 0.976571C19.3995 5.85938 16.6472 12.5049 16.6667 19.4303V46.6667C16.6765 54.5833 22.2462 61.4046 30.0001 62.9997V150ZM36.6667 76.6667H43.3334V150H36.6667V76.6667ZM56.6667 163.333H66.6667V170H56.6667V163.333ZM66.6667 136.667V156.667H56.0531C55.0456 153.843 52.824 151.621 50.0001 150.614V126.667C50.018 116.917 57.0557 108.6 66.6667 106.966V136.667ZM33.3334 183.333H30.0001V156.667H46.6667C48.5075 156.667 50.0001 158.159 50.0001 160V180C50.0001 181.841 48.5075 183.333 46.6667 183.333H33.3334ZM50.0001 193.031V189.386C53.9812 187.979 56.6488 184.222 56.6667 180V176.667H66.39C64.9529 185.047 58.3822 191.606 50.0001 193.031ZM73.3334 133.333V106.667H80.0001V133.333H73.3334ZM87.6661 106.667C88.9307 110.876 91.3575 114.642 94.6664 117.533L104.12 133.333H86.6667V106.667H87.6661ZM110 116.667C100.799 116.655 93.3448 109.201 93.3334 100V86.6667C93.3334 77.4626 100.796 70 110 70C119.204 70 126.667 77.4626 126.667 86.6667V100C126.655 109.201 119.201 116.655 110 116.667ZM114.274 122.923L110 130.156L105.667 122.91C107.095 123.187 108.545 123.328 110 123.333C111.434 123.327 112.865 123.19 114.274 122.923ZM176.667 170H153.333V163.333H176.667V170ZM170 126.667V156.667H153.333V106.966C162.944 108.6 169.982 116.917 170 126.667ZM146.667 106.667V133.333H140V106.667H146.667ZM133.333 106.667V133.333H115.853L125.077 117.777C128.524 114.855 131.051 110.996 132.35 106.667H133.333ZM133.311 86.2305C133.096 73.5091 122.721 63.3106 110 63.3106C97.2787 63.3106 86.906 73.5091 86.6895 86.2305C84.4971 82.2852 83.3432 77.8467 83.3334 73.3333V43.3333H136.667V73.3333C136.657 77.8467 135.503 82.2852 133.311 86.2305ZM143.333 70V56.6667C147.015 56.6667 150 59.6517 150 63.3333C150 67.015 147.015 70 143.333 70ZM146.667 43.3333C150.164 43.335 153.407 45.1644 155.217 48.1576C157.026 51.1507 157.142 54.8714 155.521 57.9704C153.395 53.1332 148.617 50.0082 143.333 50V43.3333H146.667ZM88.7273 8.19011C90.2149 7.19565 91.9646 6.66505 93.7533 6.66668H96.2468C98.0372 6.66505 99.7868 7.19565 101.273 8.19011C106.556 11.722 113.446 11.722 118.727 8.19011C120.215 7.19565 121.965 6.66505 123.753 6.66668H126.247C128.037 6.66505 129.787 7.19565 131.273 8.19011C133.587 9.72983 136.667 12.7995 136.667 21.5967V23.3333H83.3334V21.5967C83.3334 12.7995 86.4128 9.72983 88.7273 8.19011ZM83.3334 30H136.667V36.6667H83.3334V30ZM73.3334 43.3333H76.6667V50C71.4047 50.0098 66.6423 53.1136 64.5069 57.9232C62.8549 54.8373 62.9542 51.11 64.7657 48.1152C66.5772 45.1205 69.834 43.3024 73.3334 43.3333ZM70.0001 63.3333C70.0001 59.6517 72.9851 56.6667 76.6667 56.6667V70C72.9851 70 70.0001 67.015 70.0001 63.3333ZM57.7165 59.0462C58.9096 62.2917 61.0792 65.0863 63.9275 67.0459C65.5632 72.7279 70.7536 76.6472 76.6667 76.6667H76.8441C77.6384 84.4059 81.1133 91.6244 86.6667 97.0736V100H70.0001C62.3357 100.005 55.0456 103.317 50.0001 109.087V62.9997C52.8777 62.391 55.5421 61.027 57.7165 59.0462V59.0462ZM43.3334 70H36.6667V63.3333H43.3334V70Z" fill="#30E9BC"/>
<path d="M105.703 77.666L100.964 82.334C103.167 85.0667 106.489 86.6569 110 86.6569C113.511 86.6569 116.833 85.0667 119.036 82.334L114.297 77.666C113.351 79.1211 111.735 80 110 80C108.265 80 106.649 79.1211 105.703 77.666Z" fill="#30E9BC"/>
</g>
<defs>
<clipPath id="clip0">
<rect width="200" height="200" fill="white"/>
</clipPath>
</defs>
</svg>
