<svg width="512" height="512" viewBox="0 0 512 512" fill="none" xmlns="http://www.w3.org/2000/svg">
<path d="M152 429.176V500.944L192 480.944L232 500.944V429.176C246.672 420.656 258.408 407.648 265.272 392H360V8H76.688L8 76.688V392H118.728C125.592 407.648 137.328 420.656 152 429.176ZM216 475.056L192 463.056L168 475.056V436.312C175.584 438.696 183.64 440 192 440C200.36 440 208.416 438.696 216 436.312V475.056ZM192 424C156.712 424 128 395.288 128 360C128 324.712 156.712 296 192 296C227.288 296 256 324.712 256 360C256 395.288 227.288 424 192 424ZM72 35.312V72H35.312L72 35.312ZM24 376V88H88V24H344V376H270.384C271.44 370.832 272 365.48 272 360C272 315.888 236.112 280 192 280C147.888 280 112 315.888 112 360C112 365.48 112.56 370.832 113.616 376H24ZM216.84 308.424L231.152 315.584L186.184 405.512L154.336 373.664L165.648 362.352L181.8 378.504L216.84 308.424ZM328 40H280V168H328V40ZM312 152H296V56H312V152ZM264 72H216V168H264V72ZM248 152H232V88H248V152ZM200 104H152V168H200V104ZM184 152H168V120H184V152ZM40 184H56V200H40V184ZM200 200H72V184H200V200ZM40 216H56V232H40V216ZM200 232H72V216H200V232ZM40 248H56V264H40V248ZM200 264H72V248H200V264ZM440 33.048L510.424 80L440 126.952V104H376V88H456V97.048L481.576 80L456 62.952V72H408V56H440V33.048ZM376 72V56H392V72H376ZM440 153.048L510.424 200L440 246.952V224H376V208H456V217.048L481.576 200L456 182.952V192H376V176H440V153.048ZM440 273.056L510.424 320L440 366.944V344H408V328H456V337.056L481.576 320L456 302.944V312H376V296H440V273.056ZM392 344H376V328H392V344Z" fill="url(#paint0_linear)"/>
<defs>
<linearGradient id="paint0_linear" x1="259.211" y1="500.946" x2="259.211" y2="8" gradientUnits="userSpaceOnUse">
<stop stop-color="#51EEA2"/>
<stop offset="1" stop-color="#0BB1D3"/>
</linearGradient>
</defs>
</svg>
