<svg width="530" height="530" viewBox="0 0 530 530" fill="none" xmlns="http://www.w3.org/2000/svg">
<path d="M483.147 358.853L376.129 335.082V318.06C392.404 307.416 405.151 291.877 412.339 273.54H435.968C454.826 273.54 470.161 258.205 470.161 239.347V179.508C470.161 166.906 463.237 156 453.065 150.068V112.686C453.065 94.0657 441.937 77.4739 425.028 70.303L422.991 66.225C402.622 25.4824 361.666 0.171134 316.111 0.171134C250.22 0.179483 196.613 53.7864 196.613 119.677V150.077C186.441 156.008 179.516 166.915 179.516 179.516V239.355C179.516 258.213 194.851 273.548 213.71 273.548H237.339C244.526 291.885 257.274 307.425 273.548 318.068V335.09L166.531 358.861C138.945 364.989 119.677 389.018 119.677 417.272V530H530V417.272C530 389.018 510.733 364.989 483.147 358.853V358.853ZM383.479 354.228L370.778 405.03L338.25 383.354L370.306 351.298L383.479 354.228ZM340.729 405.543L335.261 427.419H314.416L308.94 405.543L324.839 394.954L340.729 405.543ZM290.645 338.396V326.855C301.264 331.02 312.767 333.387 324.839 333.387C336.91 333.387 348.414 331.02 359.032 326.855V338.396L324.839 372.589L290.645 338.396ZM453.065 179.516V239.355C453.065 248.784 445.397 256.452 435.968 256.452H417.239C418.266 250.896 418.871 245.203 418.871 239.355V162.419H435.968C445.397 162.419 453.065 170.087 453.065 179.516V179.516ZM213.71 256.452C204.281 256.452 196.613 248.784 196.613 239.355V179.516C196.613 170.087 204.281 162.419 213.71 162.419H230.806V239.355C230.806 245.203 231.412 250.896 232.439 256.452H213.71ZM230.806 119.677V145.323H213.71V119.677C213.71 63.2155 259.649 17.2763 316.111 17.2763C355.142 17.2763 390.241 38.9645 407.697 73.8843L412.819 84.1064L416.179 85.2293C428.008 89.1779 435.968 100.214 435.968 112.703V145.323H418.871V119.677H401.774V139.85C395.405 143.11 388.447 144.939 381.276 145.202C385.216 141.612 388.764 137.526 391.79 132.972L377.565 123.488C368.779 136.67 354.27 144.655 338.517 145.218C342.466 141.62 346.014 137.526 349.048 132.972L334.823 123.488C326.037 136.67 311.528 144.655 295.775 145.218C299.724 141.62 303.272 137.526 306.306 132.972L292.081 123.488C282.969 137.158 267.709 145.323 251.28 145.323H247.903V119.677H230.806ZM247.903 239.355V162.419H251.28C262.212 162.419 272.743 159.719 282.097 154.793V162.419H294.022C304.954 162.419 315.485 159.719 324.839 154.793V162.419H336.764C347.696 162.419 358.227 159.719 367.581 154.793V162.419H379.506C387.165 162.419 394.653 160.942 401.774 158.383V239.355C401.774 245.236 401.048 250.946 399.792 256.452H357.45C353.911 246.526 344.507 239.355 333.379 239.355H316.282C302.145 239.355 290.637 250.863 290.637 265C290.637 279.137 302.145 290.645 316.282 290.645H333.379C344.507 290.645 353.911 283.474 357.45 273.548H393.652C381.038 298.835 354.963 316.29 324.839 316.29C282.414 316.29 247.903 281.78 247.903 239.355V239.355ZM341.936 265C341.936 269.708 338.104 273.548 333.387 273.548H316.29C311.574 273.548 307.742 269.708 307.742 265C307.742 260.292 311.574 256.452 316.29 256.452H333.387C338.104 256.452 341.936 260.292 341.936 265ZM279.371 351.298L311.428 383.354L278.899 405.03L266.198 354.228L279.371 351.298ZM283.637 512.903H205.161V418.871H188.065V512.903H136.774V417.272C136.774 397.091 150.536 379.923 170.241 375.549L249.51 357.93L268.197 432.712L293.842 415.615L298.981 436.181L283.637 512.903ZM301.076 512.903L314.75 444.516H334.936L348.61 512.903H301.076ZM512.903 512.903H461.613V418.871H444.516V512.903H366.04L350.697 436.181L355.835 415.615L381.48 432.712L400.167 357.93L479.436 375.549C499.142 379.923 512.903 397.091 512.903 417.272V512.903ZM367.581 188.065C367.581 183.348 371.412 179.516 376.129 179.516C380.846 179.516 384.677 183.348 384.677 188.065C384.677 192.781 380.846 196.613 376.129 196.613C371.412 196.613 367.581 192.781 367.581 188.065ZM282.097 188.065C282.097 192.781 278.265 196.613 273.548 196.613C268.832 196.613 265 192.781 265 188.065C265 183.348 268.832 179.516 273.548 179.516C278.265 179.516 282.097 183.348 282.097 188.065ZM119.677 51.2903H34.1936V34.1936H119.677V51.2903ZM119.677 85.4839H34.1936V68.3871H119.677V85.4839ZM128.226 151.179V119.677H153.871V0H0V119.677H70.5158L128.226 151.179ZM17.0968 17.0968H136.774V102.581H111.129V122.37L74.8735 102.581H17.0968V17.0968ZM179.516 333.387V316.29H41.615L51.2903 301.786V162.419C51.2903 148.282 39.7826 136.774 25.6452 136.774C11.5078 136.774 0 148.282 0 162.419V301.786L21.0704 333.387H179.516ZM17.0968 162.419C17.0968 157.711 20.9285 153.871 25.6452 153.871C30.3618 153.871 34.1936 157.711 34.1936 162.419V179.516H17.0968V162.419ZM17.0968 196.613H34.1936V296.601L25.6452 309.424L17.0968 296.601V196.613ZM179.516 299.194H162.419V282.097H179.516V299.194ZM68.3871 282.097H145.323V299.194H68.3871V282.097ZM145.323 265H68.3871V247.903H145.323V265ZM145.323 230.806H128.226V213.71H145.323V230.806ZM111.129 213.71V230.806H68.3871V213.71H111.129Z" fill="url(#paint0_linear)"/>
<defs>
<linearGradient id="paint0_linear" x1="265" y1="530" x2="265" y2="0" gradientUnits="userSpaceOnUse">
<stop stop-color="#51EEA2"/>
<stop offset="1" stop-color="#0BB1D3"/>
</linearGradient>
</defs>
</svg>
