<svg width="496" height="496" viewBox="0 0 496 496" fill="none" xmlns="http://www.w3.org/2000/svg">
<path d="M452.152 335.832L352 313.586V297.656C367.23 287.695 379.16 273.152 385.887 255.992H408C425.648 255.992 440 241.641 440 223.992V167.992C440 156.199 433.52 145.992 424 140.441V105.457C424 88.0312 413.586 72.5039 397.762 65.793L395.855 61.9766C376.793 23.8477 338.465 0.160156 295.832 0.160156C234.168 0.167969 184 50.3359 184 112V140.449C174.48 146 168 156.207 168 168V224C168 241.648 182.352 256 200 256H222.113C228.84 273.16 240.77 287.703 256 297.664V313.594L155.848 335.84C130.031 341.574 112 364.062 112 390.504V496H496V390.504C496 364.062 477.969 341.574 452.152 335.832V335.832ZM358.879 331.504L346.992 379.047L316.551 358.762L346.551 328.762L358.879 331.504ZM318.871 379.527L313.754 400H294.246L289.121 379.527L304 369.617L318.871 379.527ZM272 316.688V305.887C281.938 309.785 292.703 312 304 312C315.297 312 326.062 309.785 336 305.887V316.688L304 348.688L272 316.688ZM424 168V224C424 232.824 416.824 240 408 240H390.473C391.434 234.801 392 229.473 392 224V152H408C416.824 152 424 159.176 424 168V168ZM200 240C191.176 240 184 232.824 184 224V168C184 159.176 191.176 152 200 152H216V224C216 229.473 216.566 234.801 217.527 240H200ZM216 112V136H200V112C200 59.1602 242.992 16.168 295.832 16.168C332.359 16.168 365.207 36.4648 381.543 69.1445L386.336 78.7109L389.48 79.7617C400.551 83.457 408 93.7852 408 105.473V136H392V112H376V130.879C370.039 133.93 363.527 135.641 356.816 135.887C360.504 132.527 363.824 128.703 366.656 124.441L353.344 115.566C345.121 127.902 331.543 135.375 316.801 135.902C320.496 132.535 323.816 128.703 326.656 124.441L313.344 115.566C305.121 127.902 291.543 135.375 276.801 135.902C280.496 132.535 283.816 128.703 286.656 124.441L273.344 115.566C264.816 128.359 250.535 136 235.16 136H232V112H216ZM232 224V152H235.16C245.391 152 255.246 149.473 264 144.863V152H275.16C285.391 152 295.246 149.473 304 144.863V152H315.16C325.391 152 335.246 149.473 344 144.863V152H355.16C362.328 152 369.336 150.617 376 148.223V224C376 229.504 375.32 234.848 374.145 240H334.52C331.207 230.711 322.406 224 311.992 224H295.992C282.762 224 271.992 234.77 271.992 248C271.992 261.23 282.762 272 295.992 272H311.992C322.406 272 331.207 265.289 334.52 256H368.398C356.594 279.664 332.191 296 304 296C264.297 296 232 263.703 232 224V224ZM320 248C320 252.406 316.414 256 312 256H296C291.586 256 288 252.406 288 248C288 243.594 291.586 240 296 240H312C316.414 240 320 243.594 320 248ZM261.449 328.762L291.449 358.762L261.008 379.047L249.121 331.504L261.449 328.762ZM265.441 480H192V392H176V480H128V390.504C128 371.617 140.879 355.551 159.32 351.457L233.504 334.969L250.992 404.953L274.992 388.953L279.801 408.199L265.441 480ZM281.762 480L294.559 416H313.449L326.246 480H281.762ZM480 480H432V392H416V480H342.559L328.199 408.199L333.008 388.953L357.008 404.953L374.496 334.969L448.68 351.457C467.121 355.551 480 371.617 480 390.504V480ZM344 176C344 171.586 347.586 168 352 168C356.414 168 360 171.586 360 176C360 180.414 356.414 184 352 184C347.586 184 344 180.414 344 176ZM264 176C264 180.414 260.414 184 256 184C251.586 184 248 180.414 248 176C248 171.586 251.586 168 256 168C260.414 168 264 171.586 264 176ZM112 48H32V32H112V48ZM112 80H32V64H112V80ZM120 141.48V112H144V0H0V112H65.9922L120 141.48ZM16 16H128V96H104V114.52L70.0703 96H16V16ZM168 312V296H38.9453L48 282.426V152C48 138.77 37.2305 128 24 128C10.7695 128 0 138.77 0 152V282.426L19.7188 312H168ZM16 152C16 147.594 19.5859 144 24 144C28.4141 144 32 147.594 32 152V168H16V152ZM16 184H32V277.574L24 289.574L16 277.574V184ZM168 280H152V264H168V280ZM64 264H136V280H64V264ZM136 248H64V232H136V248ZM136 216H120V200H136V216ZM104 200V216H64V200H104Z" fill="url(#paint0_linear)"/>
<defs>
<linearGradient id="paint0_linear" x1="248" y1="496" x2="248" y2="0" gradientUnits="userSpaceOnUse">
<stop stop-color="#51EEA2"/>
<stop offset="1" stop-color="#0BB1D3"/>
</linearGradient>
</defs>
</svg>
